<?xml version="1.0" encoding="UTF-8"?><svg width="966" height="960" viewBox="0 0 966 960" xmlns="http://www.w3.org/2000/svg" xmlns:xlink="http://www.w3.org/1999/xlink"><svg width="34" height="34" viewBox="-5 -5 34 34" id="dropdown_menuitem_contactdetails" xmlns="http://www.w3.org/2000/svg"><g transform="translate(7 3)" fill="#333" fill-rule="nonzero"><path d="M8.278 0H1.32C.968 0 .631.145.384.401A1.377 1.377 0 000 1.366v14.279C.001 16.393.593 17 1.322 17h6.956c.73 0 1.321-.607 1.322-1.355V1.365A1.377 1.377 0 009.216.4a1.305 1.305 0 00-.938-.4zM8.02 1.057a.49.49 0 01.356.154.53.53 0 01.143.372v.593H1.082v-.593a.53.53 0 01.142-.37.49.49 0 01.352-.156h6.443zm.5 1.945v9.36H1.081V3l7.436.002zm-6.94 12.99a.49.49 0 01-.354-.156.532.532 0 01-.142-.373v-2.115h7.435v2.115a.531.531 0 01-.142.371.49.49 0 01-.353.156l-6.444.002z"/><circle cx="4.795" cy="14.674" r="1"/></g></svg><svg width="34" height="34" viewBox="-5 -5 34 34" id="dropdown_menuitem_logindetails" x="34" y="34" xmlns="http://www.w3.org/2000/svg"><path d="M17.26 10.933h-.768V8.667c0-2.573-2.01-4.667-4.479-4.667-2.469 0-4.478 2.094-4.478 4.667v2.266h-.511C6.458 10.933 6 11.411 6 12v6.933C6 19.523 6.458 20 7.024 20h10.235c.566 0 1.024-.478 1.024-1.067V12c0-.59-.458-1.067-1.024-1.067zm-4.35 5.6c0 .442-.345.8-.769.8-.424 0-.767-.358-.767-.8V14.4c0-.442.343-.8.767-.8s.768.358.768.8v2.133zm-3.733-5.647V8.664c0-1.415 1.263-2.89 2.904-2.89s2.902 1.518 2.902 2.89v2.222H9.177z" fill="#333" fill-rule="nonzero"/></svg><svg width="34" height="34" viewBox="-5 -5 34 34" id="dropdown_menuitem_logout" x="68" y="68" xmlns="http://www.w3.org/2000/svg"><g fill="#333" fill-rule="nonzero"><path d="M6.067 11.734c0-.129.067-.257.201-.386l2.346-2.063c.067-.064.201-.129.402-.129.336 0 .537.194.604.516 0 .129-.067.258-.201.387l-1.341 1.16h4.089c.268 0 .536.258.536.515 0 .258-.268.516-.536.516H8.078l1.34 1.16c.068.13.135.258.135.387 0 .322-.268.515-.537.515-.134 0-.335-.064-.402-.128L6.268 12.12c-.134-.129-.201-.258-.201-.387z"/><path d="M16.172 19.984h-5.906c-.394 0-.657-.33-.657-.73 0-.4.263-.743.657-.743h5.037v-13h-5.037c-.394 0-.657-.395-.657-.795S9.872 4 10.266 4h5.906c.394 0 .656.316.656.716v14.492c0 .4-.262.776-.656.776z"/></g></svg><svg width="34" height="34" viewBox="-5 -5 34 34" id="dropdown_menuitem_mydocuments" x="102" y="102" xmlns="http://www.w3.org/2000/svg"><path d="M7.97 10.255h7.443c.183 0 .331-.166.331-.37 0-.205-.148-.37-.33-.37H7.97c-.183 0-.331.165-.331.37 0 .204.148.37.33.37zm0-1.92h7.443c.183 0 .331-.19.331-.424 0-.234-.148-.423-.33-.423H7.97c-.183 0-.331.19-.331.423 0 .234.148.424.33.424zm3.915 3.19H7.971c-.183 0-.331.166-.331.37s.148.37.33.37h3.915c.183 0 .33-.166.33-.37s-.147-.37-.33-.37zm-1.092 2.116H7.97c-.183 0-.331.166-.331.37 0 .205.148.37.33.37h2.823c.183 0 .33-.165.33-.37 0-.204-.148-.37-.33-.37zm5.825.595a.33.33 0 00-.468-.002h-.001l-1.663 1.664a.33.33 0 10.468.468l1.098-1.099v3.208a.33.33 0 00.662 0v-3.207l1.098 1.098a.33.33 0 10.468-.468l-1.662-1.662zm.9-2.235V6.364a.33.33 0 00-.096-.233l-3.106-3.133a.33.33 0 00-.235-.098H6.304c-.183 0-.438.189-.438.372v15.121c0 .183.148.33.331.33h6.16a4.619 4.619 0 004.026 2.366A4.622 4.622 0 0021 16.472a4.621 4.621 0 00-3.482-4.47zm-3.11-7.83l1.8 1.815h-1.8V4.17zm-2.372 13.596H6.812V3.854h6.809v2.68c0 .178.194.37.37.37h2.47v5.007s-.064-.05-.232-.05c-2.457 0-4.456 2.018-4.456 4.499 0 .545.086.923.263 1.407zm4.341 2.27a3.6 3.6 0 01-3.597-3.594 3.6 3.6 0 013.597-3.596 3.6 3.6 0 013.597 3.596 3.6 3.6 0 01-3.597 3.595z" fill="#333" fill-rule="nonzero"/></svg><svg width="34" height="34" viewBox="-5 -5 34 34" id="dropdown_menuitem_mymessages" x="136" y="136" xmlns="http://www.w3.org/2000/svg"><path d="M5.5 7C4.678 7 4 7.71 4 8.571v7.858C4 17.29 4.678 18 5.5 18h13c.822 0 1.5-.71 1.5-1.571V8.57C20 7.71 19.322 7 18.5 7h-13zm0 1.048h13c.286 0 .5.224.5.523v7.858c0 .299-.214.523-.5.523h-13c-.286 0-.5-.224-.5-.523V8.57c0-.299.214-.523.5-.523zm1.477 1.04a.503.503 0 00-.45.341.541.541 0 00.13.567l2.46 2.422-2.469 2.586a.54.54 0 00-.14.51c.045.184.18.328.356.377a.485.485 0 00.488-.142l2.492-2.61 1.008.998c.638.63 1.642.63 2.28 0l1.016-1.007 2.5 2.62c.127.135.313.19.488.14a.513.513 0 00.356-.376.54.54 0 00-.14-.51l-2.47-2.586 2.462-2.422a.54.54 0 00.142-.503.514.514 0 00-.343-.38.484.484 0 00-.487.121l-4.203 4.142c-.2.197-.714.197-.914 0L7.344 9.234a.488.488 0 00-.367-.147z" fill="#333" fill-rule="nonzero"/></svg><svg width="34" height="34" viewBox="-5 -5 34 34" id="dropdown_menuitem_openactions_red" x="170" y="170" xmlns="http://www.w3.org/2000/svg"><path d="M10.364 4.747a.48.48 0 00-.06.008.49.49 0 00-.318.181l-2.08 2.491-1.082-1.08a.504.504 0 00-.692-.002.502.502 0 00.01.69l1.453 1.449a.505.505 0 00.711-.03l2.421-2.899a.494.494 0 00.083-.522.496.496 0 00-.446-.286zM11.856 6.7c-.294 0-.531.291-.531.65 0 .359.237.65.53.65h5.839c.293 0 .53-.291.53-.65 0-.359-.237-.65-.53-.65h-5.838zm-1.492 3.361c-.02 0-.04.004-.06.008a.49.49 0 00-.318.181l-2.08 2.491-1.082-1.08a.504.504 0 00-.692-.002.502.502 0 00.01.69l1.453 1.449a.505.505 0 00.711-.03l2.421-2.899a.494.494 0 00.083-.522.496.496 0 00-.446-.286zm1.492 1.819c-.294 0-.531.291-.531.65 0 .359.237.65.53.65h5.839c.293 0 .53-.291.53-.65 0-.359-.237-.65-.53-.65h-5.838zm-1.492 3.496c-.02 0-.04.003-.06.007a.49.49 0 00-.318.181l-2.08 2.491-1.082-1.08a.504.504 0 00-.692-.002.502.502 0 00.01.69l1.453 1.45a.505.505 0 00.711-.031l2.421-2.899a.494.494 0 00.083-.522.496.496 0 00-.446-.285zm1.492 1.674c-.294 0-.531.291-.531.65 0 .359.237.65.53.65h5.839c.293 0 .53-.291.53-.65 0-.359-.237-.65-.53-.65h-5.838z" fill="#ED1461" fill-rule="nonzero"/></svg><svg width="34" height="34" viewBox="-5 -5 34 34" id="dropdown_menuitem_openactions_white" x="204" y="204" xmlns="http://www.w3.org/2000/svg"><path d="M10.364 4.747a.48.48 0 00-.06.008.49.49 0 00-.318.181l-2.08 2.491-1.082-1.08a.504.504 0 00-.692-.002.502.502 0 00.01.69l1.453 1.449a.505.505 0 00.711-.03l2.421-2.899a.494.494 0 00.083-.522.496.496 0 00-.446-.286zM11.856 6.7c-.294 0-.531.291-.531.65 0 .359.237.65.53.65h5.839c.293 0 .53-.291.53-.65 0-.359-.237-.65-.53-.65h-5.838zm-1.492 3.361c-.02 0-.04.004-.06.008a.49.49 0 00-.318.181l-2.08 2.491-1.082-1.08a.504.504 0 00-.692-.002.502.502 0 00.01.69l1.453 1.449a.505.505 0 00.711-.03l2.421-2.899a.494.494 0 00.083-.522.496.496 0 00-.446-.286zm1.492 1.819c-.294 0-.531.291-.531.65 0 .359.237.65.53.65h5.839c.293 0 .53-.291.53-.65 0-.359-.237-.65-.53-.65h-5.838zm-1.492 3.496c-.02 0-.04.003-.06.007a.49.49 0 00-.318.181l-2.08 2.491-1.082-1.08a.504.504 0 00-.692-.002.502.502 0 00.01.69l1.453 1.45a.505.505 0 00.711-.031l2.421-2.899a.494.494 0 00.083-.522.496.496 0 00-.446-.285zm1.492 1.674c-.294 0-.531.291-.531.65 0 .359.237.65.53.65h5.839c.293 0 .53-.291.53-.65 0-.359-.237-.65-.53-.65h-5.838z" fill="#FFF" fill-rule="nonzero"/></svg><svg width="34" height="34" viewBox="-5 -5 34 34" id="dropdown_menuitem_personaldetails" x="238" y="238" xmlns="http://www.w3.org/2000/svg"><path d="M17.353 19.327h-.101a.73.73 0 01-.739-.668c-.201-1.837-.671-3.139-1.41-4.007a.775.775 0 01.067-1.069.744.744 0 011.04.067c.941 1.069 1.546 2.671 1.78 4.808.068.468-.234.835-.637.869zm-5.34-5.644c-2.652 0-4.802-2.17-4.802-4.841C7.211 6.17 9.361 4 12.013 4c2.653 0 4.802 2.17 4.802 4.842 0 2.671-2.149 4.841-4.802 4.841zm.002-8.233c-1.84 0-3.375 1.519-3.375 3.375s1.5 3.375 3.375 3.375a3.373 3.373 0 003.375-3.375 3.373 3.373 0 00-3.375-3.375zm-3.158 8.167c.302.267.336.734.067 1.068-.739.835-1.209 2.137-1.41 4.007a.758.758 0 01-.74.668h-.1c-.403-.033-.705-.434-.671-.835.268-2.17.84-3.74 1.813-4.842a.744.744 0 011.04-.066z" fill="#333" fill-rule="nonzero"/></svg><svg width="60" height="60" viewBox="-5 -5 60 60" id="dropdown_userimage" x="272" y="272" xmlns="http://www.w3.org/2000/svg"><path d="M35.752 40h-.194c-.712 0-1.36-.505-1.424-1.263-.388-3.471-1.294-5.933-2.718-7.575-.518-.568-.453-1.515.13-2.02.582-.505 1.488-.441 2.006.127 1.812 2.02 2.977 5.05 3.43 9.09.13.883-.453 1.578-1.23 1.641zM25.5 29.5c-5.124 0-9.274-3.922-9.274-8.75 0-4.828 4.15-8.75 9.274-8.75 5.124 0 9.274 3.922 9.274 8.75 0 4.828-4.15 8.75-9.274 8.75zm0-14.7c-3.44 0-6.306 2.677-6.306 5.95s2.802 5.95 6.306 5.95 6.306-2.677 6.306-5.95c0-3.332-2.866-5.95-6.306-5.95zm-6.04 14.342c.577.505.64 1.39.127 2.02-1.411 1.579-2.31 4.04-2.695 7.575-.064.695-.705 1.263-1.411 1.263h-.193c-.77-.063-1.347-.82-1.283-1.578.513-4.103 1.604-7.07 3.465-9.153.513-.568 1.412-.632 1.99-.127z" fill="#FFF" fill-rule="nonzero"/></svg><svg width="34" height="34" viewBox="-5 -5 34 34" id="footer_facebook" x="332" y="332" xmlns="http://www.w3.org/2000/svg"><defs><path d="M2.773 8.145A10 10 0 1022 11.999c.011-5.51-4.447-9.987-9.958-9.999a10 10 0 00-9.269 6.145zm10.371.881a.512.512 0 00-.383.561v1.116h1.906l-.293 1.59H12.76v4.774h-1.8v-4.773H9.334v-1.59h1.629v-.937a2.307 2.307 0 01.583-1.682c.41-.458.987-.73 1.599-.752h1.523v1.693h-1.523z" id="aja"/></defs><use fill="#757575" xlink:href="#aja" fill-rule="evenodd"/></svg><svg width="34" height="34" viewBox="-5 -5 34 34" id="footer_linkedin" x="366" y="366" xmlns="http://www.w3.org/2000/svg"><path d="M12.026 2A10 10 0 1022 12a9.987 9.987 0 00-9.974-10zM9.588 16.144h-2.02V9.628h2.02v6.516zM7.625 7.767a1.014 1.014 0 012.028.048 1.006 1.006 0 01-1.09 1.013 1.014 1.014 0 01-.938-1.061zm7.32 8.377v-3.608c0-.84-.297-1.41-1.027-1.41-.471.004-.887.309-1.034.757-.056.163-.08.335-.072.507v3.754H10.79v-4.438c0-.813-.024-1.494-.048-2.08h1.756l.088.907h.04A2.344 2.344 0 0114.64 9.48c1.323 0 2.325.892 2.325 2.81v3.853h-2.02z" fill="#757575" fill-rule="evenodd"/></svg><svg width="34" height="34" viewBox="-5 -5 34 34" id="footer_twitter" x="400" y="400" xmlns="http://www.w3.org/2000/svg"><path d="M2.773 8.144A10 10 0 1022 12 9.978 9.978 0 0012.042 2a10 10 0 00-9.269 6.144zM16.1 10.445a5.573 5.573 0 01-8.587 4.72c.157.02.315.028.473.027a3.897 3.897 0 002.43-.843 1.96 1.96 0 01-1.829-1.363 1.934 1.934 0 00.882-.034 1.966 1.966 0 01-1.571-1.93v-.03c.273.151.578.236.89.246a1.98 1.98 0 01-.61-2.63 5.577 5.577 0 004.041 2.06 2.08 2.08 0 01-.048-.451 1.964 1.964 0 011.964-1.97c.542-.001 1.06.225 1.428.623.438-.088.859-.25 1.242-.481-.145.455-.45.842-.858 1.09a3.908 3.908 0 001.123-.312c-.26.4-.592.746-.978 1.024.008.086.008.171.008.254z" fill="#757575" fill-rule="evenodd"/></svg><svg width="22" height="20" viewBox="-5 -5 22 20" id="icon_arrow_black" x="434" y="434" xmlns="http://www.w3.org/2000/svg"><defs><style>.amcls-1{fill:#000;fill-rule:evenodd}</style></defs><path class="amcls-1" d="M5.248 9a.944.944 0 01.33-.706l2.58-2.293H1.12a1.007 1.007 0 110-2h7.038l-2.58-2.293a.947.947 0 01-.33-.707 1.069 1.069 0 011.126-1 1.189 1.189 0 01.795.293l4.5 4a.922.922 0 010 1.414l-4.5 4a1.184 1.184 0 01-.795.294A1.069 1.069 0 015.248 9z"/></svg><svg width="22" height="20" viewBox="-5 -5 22 20" id="icon_arrow_green" x="456" y="454" xmlns="http://www.w3.org/2000/svg"><defs><style>.ancls-1{fill:#00b263;fill-rule:evenodd}</style></defs><path class="ancls-1" d="M5.248 9a.944.944 0 01.33-.706l2.58-2.293H1.12a1.007 1.007 0 110-2h7.038l-2.58-2.293a.947.947 0 01-.33-.707 1.069 1.069 0 011.126-1 1.189 1.189 0 01.795.293l4.5 4a.922.922 0 010 1.414l-4.5 4a1.184 1.184 0 01-.795.294A1.069 1.069 0 015.248 9z"/></svg><svg width="22" height="20" viewBox="-5 -5 22 20" id="icon_arrow_white" x="478" y="474" xmlns="http://www.w3.org/2000/svg"><defs><style>.aocls-1{fill:#fff;fill-rule:evenodd}</style></defs><path class="aocls-1" d="M5.248 9a.944.944 0 01.33-.706l2.58-2.293H1.12a1.007 1.007 0 110-2h7.038l-2.58-2.293a.947.947 0 01-.33-.707 1.069 1.069 0 011.126-1 1.189 1.189 0 01.795.293l4.5 4a.922.922 0 010 1.414l-4.5 4a1.184 1.184 0 01-.795.294A1.069 1.069 0 015.248 9z"/></svg><svg width="30" height="30" viewBox="-5 -5 30 30" id="icon_calendar" x="500" y="494" xmlns="http://www.w3.org/2000/svg"><path d="M1.5 7.998h17V4.502a1 1 0 00-1-1H16v.496a2 2 0 11-4 0v-.496H8.003v.49a2 2 0 01-2 2H6a2 2 0 01-2-2v-.49H2.5a1 1 0 00-1 1v3.496zm17 1.502h-17v8a1 1 0 001 1h15a1 1 0 001-1v-8zM1.999 1.998H4C4 .894 4.894 0 5.998 0h.007C7.11 0 8.003.894 8.003 1.998H12C12 .894 12.894 0 13.998 0h.004C15.106 0 16 .894 16 1.998h2a2 2 0 012 2v14a2 2 0 01-2 2H1.999a1.999 1.999 0 01-1.999-2V3.998c0-1.104.895-2 1.999-2zM13.5 2v2a.5.5 0 101 0V2a.5.5 0 10-1 0zm-8 0v2a.5.5 0 001 0V2a.5.5 0 00-1 0z" fill="#00B263" fill-rule="evenodd"/></svg><svg width="34" height="34" viewBox="-5 -5 34 34" id="icon_chevron" x="530" y="524" xmlns="http://www.w3.org/2000/svg"><path d="M12.165 14.71L4.7 7.54a1.205 1.205 0 00-1.535-.111.861.861 0 00-.118 1.3l8.4 8.678a1 1 0 001.437 0l8.4-8.678a.861.861 0 00-.119-1.3 1.205 1.205 0 00-1.535.111l-7.465 7.168z" fill="#333" fill-rule="evenodd"/></svg><svg width="34" height="34" viewBox="-5 -5 34 34" id="icon_question_green" x="564" y="558" xmlns="http://www.w3.org/2000/svg"><path d="M12 2c5.523 0 10 4.477 10 10s-4.477 10-10 10S2 17.523 2 12 6.477 2 12 2zm.013 15c-.845 0-1.513.637-1.513 1.497 0 .894.636 1.503 1.513 1.503.863 0 1.487-.632 1.487-1.503 0-.851-.641-1.497-1.487-1.497zm.118-13C9.526 4 6.5 5.672 6.5 8.452c0 1.38 2.262 2.106 2.883.131.489-1.425 1.069-2.335 2.748-2.335 1.24 0 2.343.755 2.343 2.026 0 2.131-4.08 2.747-4.08 6.264a1.342 1.342 0 002.66.33c.717-3.166 4.446-3.314 4.446-6.616C17.5 5.447 14.766 4 12.131 4z" fill="#009754" fill-rule="evenodd"/></svg><svg width="34" height="34" viewBox="-5 -5 34 34" id="icon_question_grey" x="598" y="592" xmlns="http://www.w3.org/2000/svg"><path d="M12 2c5.523 0 10 4.477 10 10s-4.477 10-10 10S2 17.523 2 12 6.477 2 12 2zm.013 15c-.845 0-1.513.637-1.513 1.497 0 .894.636 1.503 1.513 1.503.863 0 1.487-.632 1.487-1.503 0-.851-.641-1.497-1.487-1.497zm.118-13C9.526 4 6.5 5.672 6.5 8.452c0 1.38 2.262 2.106 2.883.131.489-1.425 1.069-2.335 2.748-2.335 1.24 0 2.343.755 2.343 2.026 0 2.131-4.08 2.747-4.08 6.264a1.342 1.342 0 002.66.33c.717-3.166 4.446-3.314 4.446-6.616C17.5 5.447 14.766 4 12.131 4z" fill="#777" fill-rule="evenodd"/></svg><svg width="30" height="30" viewBox="-5 -5 30 30" id="information_box_chat" x="632" y="626" xmlns="http://www.w3.org/2000/svg"><path d="M16.444 13.99c-.529-.416-.798-.816-.929-1.395C16.474 11.602 17 10.35 17 9.052 17 5.991 14.101 3.5 10.538 3.5c-3.563 0-6.461 2.49-6.461 5.552v.023C3.382 9.796 3 10.698 3 11.625c0 1.131.557 2.202 1.537 2.968-.098.239-.25.436-.48.625a.724.724 0 00-.183.86.711.711 0 00.643.422c.838 0 1.84-.632 2.249-.916.358.069.72.104 1.08.104 1.247 0 2.425-.395 3.33-1.113a7.344 7.344 0 001.58-.306c.61.395 1.933 1.148 3.177 1.148a.8.8 0 00.716-.457c.162-.34.075-.748-.205-.97zm-3.752-2.365c0-2.24-2.173-4.063-4.846-4.063a5.55 5.55 0 00-2.585.63c.488-2.064 2.688-3.609 5.277-3.609 2.97 0 5.385 2.005 5.385 4.47 0 1.09-.481 2.142-1.356 2.96l-.104.098-.103.096.02.142.021.14c.1.68.33 1.233.723 1.718-.699-.2-1.434-.6-1.98-.98l-.114-.08-.113-.079-.13.046-.13.047a5.247 5.247 0 01-.388.122c.278-.52.423-1.083.423-1.658zM5.606 14.02l-.153-.1c-.874-.571-1.376-1.408-1.376-2.295 0-1.643 1.69-2.98 3.77-2.98 2.078 0 3.768 1.337 3.768 2.98 0 1.642-1.69 2.98-3.769 2.98-.359 0-.721-.044-1.078-.128l-.122-.029-.122-.03-.101.077-.1.076c-.262.197-.54.373-.83.525.089-.197.154-.404.195-.616l.036-.18.036-.18-.154-.1z" fill="#00B263" fill-rule="nonzero"/></svg><svg width="30" height="30" viewBox="-5 -5 30 30" id="information_box_chat_white" x="662" y="656" xmlns="http://www.w3.org/2000/svg"><path d="M16.444 13.99c-.529-.416-.798-.816-.929-1.395C16.474 11.602 17 10.35 17 9.052 17 5.991 14.101 3.5 10.538 3.5c-3.563 0-6.461 2.49-6.461 5.552v.023C3.382 9.796 3 10.698 3 11.625c0 1.131.557 2.202 1.537 2.968-.098.239-.25.436-.48.625a.724.724 0 00-.183.86.711.711 0 00.643.422c.838 0 1.84-.632 2.249-.916.358.069.72.104 1.08.104 1.247 0 2.425-.395 3.33-1.113a7.344 7.344 0 001.58-.306c.61.395 1.933 1.148 3.177 1.148a.8.8 0 00.716-.457c.162-.34.075-.748-.205-.97zm-3.752-2.365c0-2.24-2.173-4.063-4.846-4.063a5.55 5.55 0 00-2.585.63c.488-2.064 2.688-3.609 5.277-3.609 2.97 0 5.385 2.005 5.385 4.47 0 1.09-.481 2.142-1.356 2.96l-.104.098-.103.096.02.142.021.14c.1.68.33 1.233.723 1.718-.699-.2-1.434-.6-1.98-.98l-.114-.08-.113-.079-.13.046-.13.047a5.247 5.247 0 01-.388.122c.278-.52.423-1.083.423-1.658zM5.606 14.02l-.153-.1c-.874-.571-1.376-1.408-1.376-2.295 0-1.643 1.69-2.98 3.77-2.98 2.078 0 3.768 1.337 3.768 2.98 0 1.642-1.69 2.98-3.769 2.98-.359 0-.721-.044-1.078-.128l-.122-.029-.122-.03-.101.077-.1.076c-.262.197-.54.373-.83.525.089-.197.154-.404.195-.616l.036-.18.036-.18-.154-.1z" fill="#FFF" fill-rule="nonzero"/></svg><svg width="30" height="30" viewBox="-5 -5 30 30" id="information_box_email" x="692" y="686" xmlns="http://www.w3.org/2000/svg"><path d="M3.5 4C2.678 4 2 4.71 2 5.571v7.858C2 14.29 2.678 15 3.5 15h13c.822 0 1.5-.71 1.5-1.571V5.57C18 4.71 17.322 4 16.5 4h-13zm0 1.048h13c.286 0 .5.224.5.523v7.858c0 .299-.214.523-.5.523h-13c-.286 0-.5-.224-.5-.523V5.57c0-.299.214-.523.5-.523zm1.477 1.04a.503.503 0 00-.45.341.541.541 0 00.13.567l2.46 2.422-2.469 2.586a.54.54 0 00-.14.51c.045.184.18.328.356.377a.485.485 0 00.488-.142l2.492-2.61 1.008.998c.638.63 1.642.63 2.28 0l1.016-1.007 2.5 2.62c.127.135.313.19.488.14a.513.513 0 00.356-.376.54.54 0 00-.14-.51l-2.47-2.586 2.462-2.422a.54.54 0 00.142-.503.514.514 0 00-.343-.38.484.484 0 00-.487.121l-4.203 4.142c-.2.197-.714.197-.914 0L5.344 6.234a.488.488 0 00-.367-.147z" fill="#00B263" fill-rule="nonzero"/></svg><svg width="30" height="30" viewBox="-5 -5 30 30" id="information_box_email_white" x="722" y="716" xmlns="http://www.w3.org/2000/svg"><path d="M3.5 4C2.678 4 2 4.71 2 5.571v7.858C2 14.29 2.678 15 3.5 15h13c.822 0 1.5-.71 1.5-1.571V5.57C18 4.71 17.322 4 16.5 4h-13zm0 1.048h13c.286 0 .5.224.5.523v7.858c0 .299-.214.523-.5.523h-13c-.286 0-.5-.224-.5-.523V5.57c0-.299.214-.523.5-.523zm1.477 1.04a.503.503 0 00-.45.341.541.541 0 00.13.567l2.46 2.422-2.469 2.586a.54.54 0 00-.14.51c.045.184.18.328.356.377a.485.485 0 00.488-.142l2.492-2.61 1.008.998c.638.63 1.642.63 2.28 0l1.016-1.007 2.5 2.62c.127.135.313.19.488.14a.513.513 0 00.356-.376.54.54 0 00-.14-.51l-2.47-2.586 2.462-2.422a.54.54 0 00.142-.503.514.514 0 00-.343-.38.484.484 0 00-.487.121l-4.203 4.142c-.2.197-.714.197-.914 0L5.344 6.234a.488.488 0 00-.367-.147z" fill="#FFF" fill-rule="nonzero"/></svg><svg width="30" height="30" viewBox="-5 -5 30 30" id="information_box_feedback" x="752" y="746" xmlns="http://www.w3.org/2000/svg"><path d="M4.063 10.147c-1.417-1.402-1.417-3.688 0-5.073a3.632 3.632 0 012.573-1.057c.962 0 1.872.381 2.572 1.057l.792.657.818-.692A3.565 3.565 0 0113.355 4c.963 0 1.89.381 2.573 1.056a3.639 3.639 0 011.067 2.39c.05.999-.333 1.97-1.05 2.667L9.995 16l-5.932-5.853zM10 14.352l4.94-4.855c.785-.744.965-1.519.965-1.997a2.2 2.2 0 00-.824-1.695c-.64-.523-1.479-.67-2.118-.476-.639.194-1.708.941-1.771 1-.043.038-.44.428-1.192 1.171L8.647 6.328c-.6-.506-1.338-.912-1.642-1-.304-.087-1.141-.12-1.925.477-.502.386-.792 1.061-.792 1.695 0 .685.215 1.221.949 2 .49.52 2.077 2.136 4.763 4.852z" fill="#00B263" fill-rule="nonzero"/></svg><svg width="30" height="30" viewBox="-5 -5 30 30" id="information_box_feedback_white" x="782" y="776" xmlns="http://www.w3.org/2000/svg"><path d="M4.063 10.147c-1.417-1.402-1.417-3.688 0-5.073a3.632 3.632 0 012.573-1.057c.962 0 1.872.381 2.572 1.057l.792.657.818-.692A3.565 3.565 0 0113.355 4c.963 0 1.89.381 2.573 1.056a3.639 3.639 0 011.067 2.39c.05.999-.333 1.97-1.05 2.667L9.995 16l-5.932-5.853zM10 14.352l4.94-4.855c.785-.744.965-1.519.965-1.997a2.2 2.2 0 00-.824-1.695c-.64-.523-1.479-.67-2.118-.476-.639.194-1.708.941-1.771 1-.043.038-.44.428-1.192 1.171L8.647 6.328c-.6-.506-1.338-.912-1.642-1-.304-.087-1.141-.12-1.925.477-.502.386-.792 1.061-.792 1.695 0 .685.215 1.221.949 2 .49.52 2.077 2.136 4.763 4.852z" fill="#FFF" fill-rule="nonzero"/></svg><svg width="30" height="30" viewBox="-5 -5 30 30" id="information_box_helpcenter" x="812" y="806" xmlns="http://www.w3.org/2000/svg"><path d="M10.41 16c-.701 0-1.21-.487-1.21-1.202 0-.688.534-1.198 1.21-1.198.678 0 1.19.517 1.19 1.198 0 .696-.5 1.202-1.19 1.202zM6 7.265C6 5.226 8.2 4 10.096 4 12.01 4 14 5.06 14 7.118c0 2.422-2.712 2.53-3.233 4.852-.219 1.174-1.936 1.11-1.936-.243 0-2.578 2.968-3.03 2.968-4.593 0-.932-.802-1.485-1.704-1.485-1.221 0-1.643.667-1.998 1.712C7.646 8.809 6 8.277 6 7.265z" fill="#00B263" fill-rule="nonzero"/></svg><svg width="30" height="30" viewBox="-5 -5 30 30" id="information_box_helpcenter_white" x="842" y="836" xmlns="http://www.w3.org/2000/svg"><path d="M10.41 16c-.701 0-1.21-.487-1.21-1.202 0-.688.534-1.198 1.21-1.198.678 0 1.19.517 1.19 1.198 0 .696-.5 1.202-1.19 1.202zM6 7.265C6 5.226 8.2 4 10.096 4 12.01 4 14 5.06 14 7.118c0 2.422-2.712 2.53-3.233 4.852-.219 1.174-1.936 1.11-1.936-.243 0-2.578 2.968-3.03 2.968-4.593 0-.932-.802-1.485-1.704-1.485-1.221 0-1.643.667-1.998 1.712C7.646 8.809 6 8.277 6 7.265z" fill="#FFF" fill-rule="nonzero"/></svg><svg width="30" height="30" viewBox="-5 -5 30 30" id="information_box_phone" x="872" y="866" xmlns="http://www.w3.org/2000/svg"><path d="M13.616 17c-1.012 0-2.569-.506-4.163-1.353-.516-.275-1.768-1.117-2.816-2.053-1.12-1.001-2.116-2.188-2.465-2.71C3.125 9.32 2.5 7.82 2.5 6.874c0-1.675 2.556-3.589 2.848-3.801a.38.38 0 01.513.06l2.736 3.233a.365.365 0 01-.042.514c-.811.696-1.541 1.473-1.614 1.717.057.265.89 1.27 2.064 2.359a.363.363 0 01.038.027c1.212 1.042 2.355 1.79 2.654 1.833.24-.102.965-.904 1.576-1.746a.38.38 0 01.516-.092l3.546 2.355c.165.11.214.328.111.495-.186.307-1.872 2.995-3.57 3.16-.082.008-.17.012-.26.012zM5.571 4.256c-.774.628-2.103 1.487-2.103 2.427s.628 2.408 1.516 3.754c.309.468 1.288 1.55 2.3 2.466.978.887 2.1 1.73 2.506 1.922 2.392 1.129 3.352 1.264 3.674 1.33.322.065.56-.086.61-.108.825-.374 1.642-1.386 2.363-2.328l-2.669-1.74c-.452.698-1.657 1.824-2.016 1.824-.147 0-.232.002-.253 0-.709-.066-2.665-1.824-3.118-2.18C7.008 10.37 6.007 9.31 6.007 8.616c0-.465.837-1.39 1.577-2.056L5.57 4.256z" fill="#00B263" fill-rule="nonzero"/></svg><svg width="30" height="30" viewBox="-5 -5 30 30" id="information_box_phone_white" x="902" y="896" xmlns="http://www.w3.org/2000/svg"><path d="M13.616 17c-1.012 0-2.569-.506-4.163-1.353-.516-.275-1.768-1.117-2.816-2.053-1.12-1.001-2.116-2.188-2.465-2.71C3.125 9.32 2.5 7.82 2.5 6.874c0-1.675 2.556-3.589 2.848-3.801a.38.38 0 01.513.06l2.736 3.233a.365.365 0 01-.042.514c-.811.696-1.541 1.473-1.614 1.717.057.265.89 1.27 2.064 2.359a.363.363 0 01.038.027c1.212 1.042 2.355 1.79 2.654 1.833.24-.102.965-.904 1.576-1.746a.38.38 0 01.516-.092l3.546 2.355c.165.11.214.328.111.495-.186.307-1.872 2.995-3.57 3.16-.082.008-.17.012-.26.012zM5.571 4.256c-.774.628-2.103 1.487-2.103 2.427s.628 2.408 1.516 3.754c.309.468 1.288 1.55 2.3 2.466.978.887 2.1 1.73 2.506 1.922 2.392 1.129 3.352 1.264 3.674 1.33.322.065.56-.086.61-.108.825-.374 1.642-1.386 2.363-2.328l-2.669-1.74c-.452.698-1.657 1.824-2.016 1.824-.147 0-.232.002-.253 0-.709-.066-2.665-1.824-3.118-2.18C7.008 10.37 6.007 9.31 6.007 8.616c0-.465.837-1.39 1.577-2.056L5.57 4.256z" fill="#FFF" fill-rule="nonzero"/></svg><svg width="34" height="34" viewBox="-5 -5 34 34" id="modal_close" x="932" y="926" xmlns="http://www.w3.org/2000/svg"><path d="M12 2c5.523 0 10 4.477 10 10s-4.477 10-10 10S2 17.523 2 12 6.477 2 12 2zm0 1a9 9 0 100 18 9 9 0 000-18zM8.994 8.419l2.962 2.962 2.965-2.96a.402.402 0 01.57.002.406.406 0 01-.002.572l-2.96 2.959 2.962 2.96a.407.407 0 01.052.512l-.052.064a.407.407 0 01-.575 0l-2.962-2.962-2.96 2.962a.407.407 0 01-.575-.575l2.962-2.96-2.962-2.961a.407.407 0 01-.052-.511l.052-.064a.407.407 0 01.575 0z" fill="#333" fill-rule="evenodd"/></svg></svg>