<?xml version="1.0" encoding="UTF-8"?>
<svg width="24px" height="24px" viewBox="0 0 24 24" version="1.1" xmlns="http://www.w3.org/2000/svg" xmlns:xlink="http://www.w3.org/1999/xlink">
    <!-- Generator: Sketch 52.5 (67469) - http://www.bohemiancoding.com/sketch -->
    <title>Group 12</title>
    <desc>Created with Sketch.</desc>
    <g id="Page-1" stroke="none" stroke-width="1" fill="none" fill-rule="evenodd">
        <g id="homepage-3-wo-news" transform="translate(-666.000000, -343.000000)">
            <rect fill="none" x="0" y="0" width="1600" height="1766"></rect>
            <g id="Mij-Belegginsrekening" transform="translate(0.000000, 142.000000)">
                <rect id="Rectangle-7-Copy" fill="none" x="0" y="0" width="1601" height="420"></rect>
                <g id="Group-16" transform="translate(200.000000, 162.000000)">
                    <g id="table">
                        <g id="account-2" transform="translate(0.000000, 26.000000)">
                            <rect id="Rectangle-5" stroke="#E2E2E2" fill="none" x="0.5" y="0.5" width="1199" height="49" rx="24.5"></rect>
                            <g id="Group-7" transform="translate(30.000000, 13.000000)">
                                <g id="Group-12" transform="translate(436.000000, 0.000000)">
                                    <g id="icon-business">
                                        <path d="M5.00263977,12.2284566 C6.4951619,12.7155865 8.26391291,12.8470852 10,13 L10,14.5125649 C10,14.8779123 10.1341947,15 10.5,15 L13.6063689,15 C13.9721742,15 14,14.8779123 14,14.5125649 L14,13 C15.7360871,12.8470852 17.5074779,12.7155865 19,12.2284566 L19,18.3259448 C19,18.6908344 18.83965,19.0060087 18.5654105,19.0060087 L5.47543335,19.0060087 C5.17097715,19.0060087 5.00263977,18.7570489 5.00263977,18.3921593 L5.00263977,12.2284566 Z M11,12.1641203 L11,12 L13,12 L13,14 L11,14 L11,12.1641203 Z M10.3936311,11 C10.0278258,11 10,11.1346526 10,11.5 L10,12 C6.82585546,11.5958558 4.82585546,11.2623008 4,10.999335 L4,8 C4,7 4,7 5,7 C5.66666667,7 10.3333333,7 19,7 C20,7 20,7 20,8 L20,10.999335 C18,11.5 16.0405433,11.8177841 14,12 L14,11.5 C14,11 13.8658053,11 13.5,11 L10.3936311,11 Z M10,6 C10,5.7189821 10,5.25888493 10,5 C10,4 10,4 11,4 L13,4 C14,4 14,4 14,5.00432316 C14,5.5 14,5.77524035 14,6 L10,6 Z M15,6 L15,4 C15,3.35219446 14.5743837,3.00607226 14,3.00432316 C13.5,3.00280057 13.3521945,3.00280057 13,3.00432316 L11,3.00432316 C10.6632269,3.00286724 10.5,3.00286724 10,3 C9.40616004,2.99659464 9,3.3367731 9,4 L9,6 L4,6 C3.5,6 3,6.5 3,7 C3,7.33333333 3,8.66666667 3,11 C3,11.5 3.5,11.9814028 4,11.9814028 L4,19.0443163 C4,19.5644931 4.43256049,20 5.0115672,20 L19.006328,20 C19.6418713,20 20,19.6048762 20,19.0443163 L20,11.9999873 C20.5,11.9999873 21,11.5 21,11 C21,8.66666667 21,7.33333333 21,7 C21,6.5 20.5,6 20,6 L15,6 Z" id="Fill-1" fill="#FFFFFF"></path>
                                        <rect id="Rectangle-20" fill-opacity="0" fill="#FFFFFF" x="0" y="0" width="24" height="24"></rect>
                                    </g>
                                </g>
                            </g>
                        </g>
                    </g>
                </g>
            </g>
        </g>
    </g>
</svg>
