<svg xmlns="http://www.w3.org/2000/svg" width="40" height="46" viewBox="0 0 40 46">
    <defs>
        <filter id="a" width="115.2%" height="112.9%" x="-7.6%" y="-6.5%" filterUnits="objectBoundingBox">
            <feOffset dy="1" in="SourceAlpha" result="shadowOffsetOuter1"/>
            <feGaussianBlur in="shadowOffsetOuter1" result="shadowBlurOuter1" stdDeviation="3.5"/>
            <feColorMatrix in="shadowBlurOuter1" result="shadowMatrixOuter1" values="0 0 0 0 0 0 0 0 0 0 0 0 0 0 0 0 0 0 0.3 0"/>
            <feMerge>
                <feMergeNode in="shadowMatrixOuter1"/>
                <feMergeNode in="SourceGraphic"/>
            </feMerge>
        </filter>
    </defs>
    <path fill="#FFF" fill-rule="nonzero" d="M36.57 41.872c-.39.115-.964.128-1.579.04a7.544 7.544 0 0 1-1.994-.594c1.18-.172 2.094-.119 2.877.158.186.066.49.241.696.396zm-6.582-1.08l-.142.038c-.318.087-.627.17-.924.246l-.401.101c-.808.204-1.633.413-2.448.66.31-.745.597-1.5.88-2.237.208-.545.42-1.103.641-1.653.112.184.229.369.35.554a10.781 10.781 0 0 0 2.044 2.291zm-2.053-8.41c.052.92-.147 1.805-.439 2.654-.36-1.05-.527-2.21-.077-3.146.115-.24.21-.368.27-.435.095.146.22.472.246.926zM23.72 44.04c-.202.36-.408.698-.62 1.017-.51.767-1.343 1.588-1.772 1.588-.042 0-.093-.007-.167-.085-.048-.05-.056-.087-.054-.136.015-.282.39-.784.931-1.25a9.16 9.16 0 0 1 1.682-1.134zm14.214-2.128c-.065-.94-1.65-1.542-1.665-1.548-.612-.216-1.277-.322-2.033-.322-.81 0-1.682.117-2.803.379a9.744 9.744 0 0 1-2.502-2.567c-.284-.432-.54-.863-.762-1.285.544-1.297 1.033-2.693.944-4.255-.072-1.253-.638-2.095-1.407-2.095-.528 0-.983.39-1.353 1.161-.659 1.374-.486 3.132.515 5.23-.36.845-.695 1.722-1.02 2.57-.403 1.055-.818 2.143-1.287 3.179-1.314.519-2.393 1.148-3.293 1.92-.589.506-1.3 1.278-1.34 2.085-.02.38.11.728.376 1.007a1.39 1.39 0 0 0 1.024.452c1.285 0 2.521-1.762 2.756-2.115.472-.71.914-1.503 1.347-2.417 1.09-.393 2.253-.687 3.379-.97l.403-.103c.304-.077.619-.162.942-.25.342-.093.694-.189 1.052-.28 1.156.735 2.4 1.214 3.613 1.39 1.022.148 1.93.062 2.544-.258.553-.287.583-.73.57-.908zm2.489 8.077c0 1.72-1.52 1.827-1.826 1.83H19.001c-1.717 0-1.82-1.526-1.824-1.83V24.001c0-1.722 1.522-1.827 1.824-1.83H32.24l.007.007v5.157c0 1.035.627 2.994 3 2.994h5.133l.044.044v19.616zm-1.217-20.836h-3.96c-1.716 0-1.82-1.518-1.822-1.818v-3.977l5.782 5.795zM41.6 49.99V29.888l-8.176-8.196v-.038h-.04l-.656-.659H19.001c-1.038 0-3.001.628-3.001 3.006V49.99c0 1.039.627 3.005 3.001 3.005H38.6c1.038 0 3.001-.628 3.001-3.006z" filter="url(#a)" transform="translate(-9 -15)"/>
</svg>
