<svg xmlns="http://www.w3.org/2000/svg" width="24" height="30" viewBox="0 0 24 30">
    <path fill="#00B263" fill-rule="nonzero" d="M19.284 19.573c-.366.107-.903.12-1.48.036a7.072 7.072 0 0 1-1.87-.556c1.106-.161 1.964-.112 2.698.148.174.062.46.226.652.372zm-6.17-1.013l-.134.036c-.297.08-.587.16-.866.23l-.376.095c-.757.191-1.53.387-2.295.62.29-.7.56-1.407.825-2.098.195-.512.395-1.035.602-1.55.104.172.214.345.328.518.518.789 1.17 1.518 1.916 2.149zm-1.925-7.885c.049.862-.138 1.692-.411 2.489-.337-.985-.494-2.072-.073-2.95.108-.225.197-.345.254-.408.088.137.205.442.23.869zm-3.952 10.93c-.189.338-.382.654-.58.953-.478.719-1.26 1.489-1.662 1.489-.039 0-.087-.006-.157-.08-.045-.047-.052-.081-.05-.127.014-.264.365-.735.873-1.172a8.588 8.588 0 0 1 1.576-1.064zm13.326-1.995c-.06-.88-1.546-1.446-1.56-1.451-.575-.203-1.198-.302-1.907-.302-.759 0-1.577.11-2.627.355a9.135 9.135 0 0 1-2.346-2.407c-.266-.405-.506-.81-.715-1.204.51-1.217.969-2.525.886-3.99-.068-1.175-.598-1.964-1.32-1.964-.495 0-.921.366-1.268 1.09-.618 1.287-.455 2.935.483 4.902a68.16 68.16 0 0 0-.956 2.41c-.378.989-.768 2.009-1.207 2.98-1.232.486-2.244 1.076-3.087 1.8-.552.474-1.218 1.198-1.256 1.954-.019.356.103.683.352.944.264.278.595.424.96.425 1.205 0 2.364-1.653 2.584-1.984.442-.666.856-1.409 1.262-2.265 1.023-.37 2.113-.644 3.168-.91l.379-.097c.284-.072.58-.152.882-.234.321-.087.651-.177.986-.262 1.085.689 2.25 1.138 3.388 1.302.958.14 1.809.059 2.384-.241.519-.27.548-.685.535-.851zm2.333 7.572c0 1.613-1.424 1.712-1.711 1.716H2.814c-1.61 0-1.707-1.431-1.71-1.716V2.818c0-1.615 1.426-1.712 1.71-1.716h12.41l.007.007v4.834c0 .97.587 2.808 2.813 2.808h4.81l.042.04v18.391zm-1.14-19.534h-3.712c-1.61 0-1.707-1.423-1.709-1.705V2.215l5.42 5.433zM24 27.182V8.337L16.335.653V.617h-.037L15.683 0H2.813C1.84 0 0 .59 0 2.818v24.365C0 28.157.588 30 2.814 30h18.373C22.16 30 24 29.41 24 27.182z"/>
</svg>
