<svg xmlns="http://www.w3.org/2000/svg" width="32" height="24" viewBox="0 0 32 24">
    <g fill="#E2E2E2" fill-rule="evenodd">
        <path d="M16 0c.3 0 .6.147.9.441l4.8 5.148c.15.148.3.442.3.883 0 .736-.45 1.176-1.2 1.323-.3 0-.6-.147-.9-.44l-2.7-2.942v10.41c0 .588-.6 1.177-1.2 1.177s-1.2-.59-1.2-1.176V4.413l-2.701 2.942c-.3.146-.6.293-.899.293-.75 0-1.2-.587-1.2-1.176 0-.294.15-.735.3-.883L15.1.44C15.4.147 15.7 0 16 0"/>
        <path d="M0 22.485v-6.971C0 14.605.533 14 1.334 14c.8 0 1.332.605 1.332 1.514v5.457h26.667v-5.457c0-.909.534-1.514 1.334-1.514.799 0 1.333.605 1.333 1.514v6.971c0 .908-.534 1.515-1.333 1.515H1.334C.533 24 0 23.393 0 22.485"/>
    </g>
</svg>
