<?xml version="1.0" encoding="utf-8"?><svg width="190" height="184" viewBox="0 0 190 184" xmlns="http://www.w3.org/2000/svg" xmlns:xlink="http://www.w3.org/1999/xlink"><svg width="22" height="20" viewBox="-5 -5 22 20" id="arrow_right_green" xmlns="http://www.w3.org/2000/svg"><defs><style>.acls-1{fill:#00b263;fill-rule:evenodd}</style></defs><path class="acls-1" d="M5.248 9a.944.944 0 01.33-.706l2.58-2.293H1.12a1.007 1.007 0 110-2h7.038l-2.58-2.293a.947.947 0 01-.33-.707 1.069 1.069 0 011.126-1 1.189 1.189 0 01.795.293l4.5 4a.922.922 0 010 1.414l-4.5 4a1.184 1.184 0 01-.795.294A1.069 1.069 0 015.248 9z"/></svg><svg width="22" height="20" viewBox="-5 -5 22 20" id="arrow_right_green_hover" x="22" y="20" xmlns="http://www.w3.org/2000/svg"><defs><style>.bcls-1{fill:#009754;fill-rule:evenodd}</style></defs><path class="bcls-1" d="M5.248 9a.944.944 0 01.33-.706l2.58-2.293H1.12a1.007 1.007 0 110-2h7.038l-2.58-2.293a.947.947 0 01-.33-.707 1.069 1.069 0 011.126-1 1.189 1.189 0 01.795.293l4.5 4a.922.922 0 010 1.414l-4.5 4a1.184 1.184 0 01-.795.294A1.069 1.069 0 015.248 9z"/></svg><svg width="22" height="20" viewBox="-5 -5 22 20" id="arrow_right_white" x="44" y="40" xmlns="http://www.w3.org/2000/svg"><defs><style>.ccls-1{fill:#fff;fill-rule:evenodd}</style></defs><path class="ccls-1" d="M5.248 9a.944.944 0 01.33-.706l2.58-2.293H1.12a1.007 1.007 0 110-2h7.038l-2.58-2.293a.947.947 0 01-.33-.707 1.069 1.069 0 011.126-1 1.189 1.189 0 01.795.293l4.5 4a.922.922 0 010 1.414l-4.5 4a1.184 1.184 0 01-.795.294A1.069 1.069 0 015.248 9z"/></svg><svg width="34" height="34" style="background:#fff" viewBox="-5 -5 34 34" id="child_icon" x="66" y="60" xmlns="http://www.w3.org/2000/svg"><g fill="none" fill-rule="evenodd"><path fill="#FDFDFD" d="M-640-873H960v3081H-640z"/><path fill="#FDFDFD" d="M-640-269H960v410H-640z"/><g transform="translate(-440 -13)"><rect stroke="#E2E2E2" fill="#FFF" x=".5" y=".5" width="1199" height="49" rx="24.5"/><path d="M440 13h24v24h-24z"/><g fill="#333" fill-rule="nonzero"><path d="M462.014 31.999h-.083c-.306 0-.584-.214-.612-.533-.167-1.466-.556-2.506-1.168-3.199a.603.603 0 01.055-.852.633.633 0 01.863.053c.778.853 1.279 2.132 1.474 3.838.055.373-.195.666-.529.693zm-3.877-4.695a3.149 3.149 0 01-3.144-3.152A3.149 3.149 0 01458.137 21a3.149 3.149 0 013.144 3.152 3.149 3.149 0 01-3.144 3.152zm.003-5.154c-1.09 0-2 .9-2 2s.889 2 2 2 2-.9 2-2c0-1.12-.91-2-2-2zm-1.784 5.265c.249.213.276.586.055.853-.61.666-.997 1.706-1.163 3.199-.028.293-.305.533-.61.533h-.082c-.332-.027-.582-.347-.554-.666.222-1.733.692-2.986 1.495-3.866a.628.628 0 01.859-.053zM451.407 31.97h-.093a.668.668 0 01-.677-.61c-.185-1.673-.616-2.86-1.293-3.651a.704.704 0 01.062-.974.685.685 0 01.954.06c.862.975 1.416 2.435 1.631 4.383.062.426-.215.761-.584.792zm-4.895-5.144a4.409 4.409 0 01-4.402-4.413A4.409 4.409 0 01446.512 18a4.409 4.409 0 014.402 4.413 4.409 4.409 0 01-4.402 4.413zm.002-7.504c-1.688 0-3.094 1.384-3.094 3.076a3.083 3.083 0 003.094 3.076 3.083 3.083 0 003.094-3.076c0-1.723-1.407-3.076-3.094-3.076zm-2.895 7.443c.277.244.308.67.061.974-.677.761-1.108 1.948-1.292 3.652a.693.693 0 01-.678.609h-.092c-.37-.03-.646-.396-.616-.76.247-1.98.77-3.41 1.663-4.414a.685.685 0 01.954-.06z"/></g></g></g></svg><svg width="34" height="34" style="background:#fff" viewBox="-5 -5 34 34" id="company_icon" x="100" y="94" xmlns="http://www.w3.org/2000/svg"><g fill="none" fill-rule="evenodd"><path fill="#FDFDFD" d="M-666-343H934v1766H-666z"/><path fill="#F8F8F8" d="M-666-201H935v420H-666z"/><g transform="translate(-466 -13)"><rect stroke="#E2E2E2" fill="#FFF" x=".5" y=".5" width="1199" height="49" rx="24.5"/><path d="M471.003 25.228c1.492.488 3.26.62 4.997.772v1.513c0 .365.134.487.5.487h3.106c.366 0 .394-.122.394-.487V26c1.736-.153 3.507-.284 5-.772v6.098c0 .365-.16.68-.435.68h-13.09c-.304 0-.472-.249-.472-.614v-6.164zm5.997-.064V25h2v2h-2v-1.836zM476.394 24c-.366 0-.394.135-.394.5v.5c-3.174-.404-5.174-.738-6-1v-3c0-1 0-1 1-1h14c1 0 1 0 1 1v3c-2 .5-3.96.818-6 1v-.5c0-.5-.134-.5-.5-.5h-3.106zM476 19v-1c0-1 0-1 1-1h2c1 0 1 0 1 1.004V19h-4zm5 0v-2c0-.648-.426-.994-1-.996h-3L476 16c-.594-.003-1 .337-1 1v2h-5c-.5 0-1 .5-1 1v4c0 .5.5.981 1 .981v7.063c0 .52.433.956 1.012.956h13.994c.636 0 .994-.395.994-.956V25c.5 0 1-.5 1-1v-4c0-.5-.5-1-1-1h-5z" fill="#333"/><path fill="none" d="M466 13h24v24h-24z"/></g></g></svg><svg width="34" height="34" style="background:#fff" viewBox="-5 -5 34 34" id="joint_icon" x="134" y="128" xmlns="http://www.w3.org/2000/svg"><g fill="none" fill-rule="evenodd"><path fill="#FDFDFD" d="M-698-765H902v1766H-698z"/><path d="M33.407 18.97h-.093a.668.668 0 01-.677-.61c-.185-1.673-.616-2.86-1.293-3.651a.704.704 0 01.062-.974.685.685 0 01.954.06c.862.975 1.416 2.435 1.631 4.383.062.426-.215.761-.584.792zm-4.895-5.144a4.409 4.409 0 01-4.402-4.413A4.409 4.409 0 0128.512 5a4.409 4.409 0 014.402 4.413 4.409 4.409 0 01-4.402 4.413zm.002-7.504c-1.688 0-3.094 1.384-3.094 3.076a3.083 3.083 0 003.094 3.076 3.083 3.083 0 003.094-3.076c0-1.723-1.407-3.076-3.094-3.076zm-2.895 7.443c.277.244.308.67.061.974-.677.761-1.108 1.948-1.292 3.652a.693.693 0 01-.678.609h-.092c-.37-.03-.646-.396-.616-.76.247-1.98.77-3.41 1.663-4.414a.685.685 0 01.954-.06z" fill="#333" fill-rule="nonzero"/><g transform="translate(-498 -13)"><rect stroke="#E2E2E2" fill="#FFF" x=".5" y=".5" width="1199" height="49" rx="24.5"/><g fill="#333" fill-rule="nonzero"><path d="M521.407 31.97h-.093a.668.668 0 01-.677-.61c-.185-1.673-.616-2.86-1.293-3.651a.704.704 0 01.062-.974.685.685 0 01.954.06c.862.975 1.416 2.435 1.631 4.383.062.426-.215.761-.584.792zm-4.895-5.144a4.409 4.409 0 01-4.402-4.413A4.409 4.409 0 01516.512 18a4.409 4.409 0 014.402 4.413 4.409 4.409 0 01-4.402 4.413zm.002-7.504c-1.688 0-3.094 1.384-3.094 3.076a3.083 3.083 0 003.094 3.076 3.083 3.083 0 003.094-3.076c0-1.723-1.407-3.076-3.094-3.076zm-2.895 7.443c.277.244.308.67.061.974-.677.761-1.108 1.948-1.292 3.652a.693.693 0 01-.678.609h-.092c-.37-.03-.646-.396-.616-.76.247-1.98.77-3.41 1.663-4.414a.685.685 0 01.954-.06zM508.407 31.97h-.093a.668.668 0 01-.677-.61c-.185-1.673-.616-2.86-1.293-3.651a.704.704 0 01.062-.974.685.685 0 01.954.06c.862.975 1.416 2.435 1.631 4.383.062.426-.215.761-.584.792zm-4.895-5.144a4.409 4.409 0 01-4.402-4.413A4.409 4.409 0 01503.512 18a4.409 4.409 0 014.402 4.413 4.409 4.409 0 01-4.402 4.413zm.002-7.504c-1.688 0-3.094 1.384-3.094 3.076a3.083 3.083 0 003.094 3.076 3.083 3.083 0 003.094-3.076c0-1.723-1.407-3.076-3.094-3.076zm-2.895 7.443c.277.244.308.67.061.974-.677.761-1.108 1.948-1.292 3.652a.693.693 0 01-.678.609h-.092c-.37-.03-.646-.396-.616-.76.247-1.98.77-3.41 1.663-4.414a.685.685 0 01.954-.06z"/></g></g></g></svg><svg width="22" height="22" viewBox="-5 -5 22 22" id="plus_icon_new_account" x="168" y="162" xmlns="http://www.w3.org/2000/svg"><g fill="#00B263" fill-rule="nonzero"><rect x="5" width="2" height="12" rx="1"/><rect transform="rotate(-90 6 6)" x="5" width="2" height="12" rx="1"/></g></svg></svg>