<?xml version="1.0" encoding="UTF-8"?>
<svg width="24px" height="24px" viewBox="0 0 24 24" version="1.1" xmlns="http://www.w3.org/2000/svg" xmlns:xlink="http://www.w3.org/1999/xlink">
    <!-- Generator: Sketch 52.6 (67491) - http://www.bohemiancoding.com/sketch -->
    <title>Rectangle 25</title>
    <desc>Created with Sketch.</desc>
    <g id="Page-1" stroke="none" stroke-width="1" fill="none" fill-rule="evenodd">
        <g id="user-menu-cases" transform="translate(-588.000000, -333.000000)">
            <g id="Group-3" transform="translate(574.000000, 200.000000)">
                <g id="Group-4-Copy">
                    <g id="user-menu-missed-hover">
                        <g id="user-menu-hover" transform="translate(6.000000, 14.000000)">
                            <g id="icon-documents" transform="translate(8.000000, 119.000000)">
                                <polygon id="Rectangle-25" fill="#D8D8D8" opacity="0" points="0 0 24 0 24 24 0 24"></polygon>
                                <path d="M7.97067109,10.255054 L15.4134186,10.255054 C15.596014,10.255054 15.7442074,10.0893934 15.7442074,9.88472485 C15.7442074,9.68005628 15.596014,9.5143957 15.4134186,9.5143957 L7.97067109,9.5143957 C7.78785516,9.5143957 7.63988231,9.68005628 7.63988231,9.88472485 C7.63988231,10.0893934 7.78785516,10.255054 7.97067109,10.255054 Z M7.97067109,8.3345009 L15.4134186,8.3345009 C15.596014,8.3345009 15.7442074,8.14517452 15.7442074,7.91126757 C15.7442074,7.67736062 15.596014,7.48803425 15.4134186,7.48803425 L7.97067109,7.48803425 C7.78785516,7.48803425 7.63988231,7.67736062 7.63988231,7.91126757 C7.63988231,8.14517452 7.78785516,8.3345009 7.97067109,8.3345009 Z M11.885005,11.5247475 L7.97067109,11.5247475 C7.78785516,11.5247475 7.63988231,11.690655 7.63988231,11.8950767 C7.63988231,12.0994984 7.78785516,12.2654058 7.97067109,12.2654058 L11.885005,12.2654058 C12.0678209,12.2654058 12.2157937,12.0994984 12.2157937,11.8950767 C12.2157937,11.690655 12.0678209,11.5247475 11.885005,11.5247475 Z M10.7927404,13.6409141 L7.97067109,13.6409141 C7.78785516,13.6409141 7.63988231,13.8068216 7.63988231,14.0112433 C7.63988231,14.2156649 7.78785516,14.3815724 7.97067109,14.3815724 L10.7927404,14.3815724 C10.9755563,14.3815724 11.1235292,14.2156649 11.1235292,14.0112433 C11.1235292,13.8068216 10.9753358,13.6409141 10.7927404,13.6409141 Z M16.6177103,14.2359048 C16.5579478,14.1757012 16.4748095,14.1377708 16.3830708,14.1377708 C16.2922141,14.1377708 16.2095169,14.1748191 16.1499749,14.2343611 C16.1495339,14.2343611 16.1490928,14.2348022 16.1486518,14.2348022 L14.4856663,15.8982287 C14.3564382,16.0274568 14.3564382,16.2367358 14.4856663,16.365964 C14.5502804,16.4305781 14.6347418,16.4627748 14.7196443,16.4627748 C14.8041057,16.4627748 14.8890081,16.4305781 14.9536222,16.365964 L16.052282,15.2673042 L16.052282,18.4748527 C16.052282,18.6574481 16.2004754,18.8056415 16.3830708,18.8056415 C16.5656662,18.8056415 16.7138595,18.6574481 16.7138595,18.4748527 L16.7138595,15.2675247 L17.8120783,16.3657435 C17.9413064,16.4949716 18.1505855,16.4949716 18.2798136,16.3657435 C18.4090418,16.2365153 18.4090418,16.0272363 18.2798136,15.8980081 L16.6177103,14.2359048 Z M17.5178968,12.0013163 L17.5178968,6.36379345 C17.5178968,6.27646522 17.4834948,6.19288592 17.4217475,6.13091815 L14.316082,2.99790737 C14.2541142,2.93527803 14.1696528,2.8999939 14.0812219,2.8999939 L6.30406628,2.8999939 C6.12125035,2.8999939 5.86619289,3.08889477 5.86619289,3.2717107 L5.86619289,18.3930376 C5.86619289,18.575633 6.01416573,18.7238264 6.19698166,18.7238264 L12.3562687,18.7238264 C13.147736,20.1332071 14.6550302,21.0889662 16.3830708,21.0889662 C18.9290417,21.0889662 21,19.0175668 21,16.4715959 C21,14.3177199 19.5156405,12.5091874 17.5178968,12.0013163 Z M14.4088914,4.17108796 L16.207633,5.98564669 L14.4088914,5.98564669 L14.4088914,4.17108796 Z M12.0358877,17.7674386 L6.8119256,17.7674386 L6.8119256,3.8536436 L13.6206073,3.8536436 L13.6206073,6.53355771 C13.6206073,6.71171255 13.8148375,6.90492224 13.9910315,6.90492224 L16.4616452,6.90492224 C16.4616452,10.2425443 16.4616452,11.9113554 16.4616452,11.9113554 C16.4616452,11.9113554 16.3966524,11.8601002 16.2287809,11.8601002 C13.7720659,11.8601002 11.7732851,13.8786869 11.7732851,16.3597456 C11.7732851,16.9049553 11.8590553,17.2834763 12.0358877,17.7674386 Z M16.3772148,20.0377858 C14.3934545,20.0377858 12.7795309,18.4249688 12.7795309,16.4425687 C12.7795309,14.4601687 14.3934545,12.8473516 16.3772148,12.8473516 C18.360975,12.8473516 19.9744975,14.4601687 19.9744975,16.4425687 C19.9744975,18.4249688 18.360975,20.0377858 16.3772148,20.0377858 Z" id="Shape" fill="#333333" fill-rule="nonzero"></path>
                            </g>
                        </g>
                    </g>
                </g>
            </g>
        </g>
    </g>
</svg>