<?xml version="1.0" encoding="UTF-8"?>
<svg width="50px" height="50px" viewBox="0 0 50 50" version="1.1" xmlns="http://www.w3.org/2000/svg" xmlns:xlink="http://www.w3.org/1999/xlink">
    <!-- Generator: Sketch 55.2 (78181) - https://sketchapp.com -->
    <title>Icon User White 50x50</title>
    <desc>Created with Sketch.</desc>
    <g id="Icon-User-White-50x50" stroke="none" stroke-width="1" fill="none" fill-rule="evenodd">
        <path d="M35.7521697,40 L35.5579958,40 C34.8460246,40 34.1987781,39.4949966 34.1340534,38.7374915 C33.7457055,35.2655931 32.8395604,32.8037015 31.4156181,31.1624404 C30.8978208,30.5943116 30.9625455,29.6474302 31.5450674,29.1424268 C32.1275892,28.6374234 33.0337344,28.7005489 33.5515316,29.2686777 C35.3638218,31.2886913 36.5288655,34.3187117 36.9819381,38.3587389 C37.1113875,39.2424949 36.5288655,39.9368745 35.7521697,40 Z M25.5,29.5 C20.3764945,29.5 16.2258065,25.5775862 16.2258065,20.75 C16.2258065,15.9224138 20.3764945,12 25.5,12 C30.6235055,12 34.7741936,15.9224138 34.7741936,20.75 C34.7741936,25.5775862 30.6235055,29.5 25.5,29.5 Z M25.5,14.8 C22.0601173,14.8 19.1935484,17.4775 19.1935484,20.75 C19.1935484,24.0225 21.9964158,26.7 25.5,26.7 C29.0035843,26.7 31.8064516,24.0225 31.8064516,20.75 C31.8064516,17.418 28.9398827,14.8 25.5,14.8 Z M19.4590724,29.1424268 C20.0365761,29.6474302 20.1007432,30.5311862 19.5874065,31.1624404 C18.1757307,32.7405761 17.2773915,35.2024677 16.892389,38.7374915 C16.8282219,39.4318711 16.1865511,40 15.4807131,40 L15.2882119,40 C14.5182069,39.9368745 13.9407031,39.1793694 14.0048702,38.4218644 C14.5182069,34.3187117 15.6090473,31.3518167 17.4698928,29.2686777 C17.9832294,28.7005489 18.8815686,28.6374234 19.4590724,29.1424268 Z" id="Shape" fill="#FFFFFF" fill-rule="nonzero"></path>
    </g>
</svg>