<?xml version="1.0" encoding="UTF-8"?>
<svg width="24px" height="24px" viewBox="0 0 24 24" version="1.1" xmlns="http://www.w3.org/2000/svg" xmlns:xlink="http://www.w3.org/1999/xlink">
    <!-- Generator: Sketch 52.6 (67491) - http://www.bohemiancoding.com/sketch -->
    <title>Rectangle 25</title>
    <desc>Created with Sketch.</desc>
    <g id="Page-1" stroke="none" stroke-width="1" fill="none" fill-rule="evenodd">
        <g id="user-menu-cases" transform="translate(-588.000000, -276.000000)">
            <g id="Group-3" transform="translate(574.000000, 200.000000)">
                <g id="Group-4-Copy">
                    <g id="user-menu-missed-hover">
                        <g id="user-menu-hover" transform="translate(6.000000, 14.000000)">
                            <g id="icon-overview" transform="translate(8.000000, 62.000000)">
                                <rect id="Rectangle-25" fill="#D8D8D8" opacity="0" x="0" y="0" width="24" height="24"></rect>
                                <path d="M10.3640459,4.74728449 C10.3437355,4.74849225 10.3235147,4.75105271 10.3035262,4.75482093 C10.1795189,4.77119819 10.0628998,4.83770003 9.98579772,4.93598535 L7.90543265,7.42699612 L6.82364281,6.34755812 C6.64470297,6.1639202 6.3127112,6.16250954 6.13220996,6.34461118 C5.95170871,6.52672007 5.95679236,6.85795627 6.1427888,7.03446597 L7.59526187,8.48377408 C7.78414873,8.67138796 8.13413664,8.65653247 8.30636848,8.45358001 L10.7271569,5.55495654 C10.8527377,5.41677398 10.886774,5.20284054 10.8102578,5.0326426 C10.7337415,4.86244709 10.5509768,4.7455598 10.3640387,4.74726516 L10.3640459,4.74728449 Z M11.8555656,6.69999695 C11.5624217,6.69999695 11.3247963,6.99099903 11.3247963,7.34999042 C11.3247963,7.70898182 11.5624217,7.9999969 11.8555656,7.9999969 L17.6940272,7.9999969 C17.987171,7.9999969 18.2247964,7.70898182 18.2247964,7.34999042 C18.2247964,6.99099903 17.987171,6.69999695 17.6940272,6.69999695 L11.8555656,6.69999695 Z M10.3640459,10.0614505 C10.3437355,10.0614505 10.3235147,10.0653153 10.3035262,10.0689386 C10.1795189,10.0853642 10.0628998,10.1518153 9.98579772,10.250103 L7.90543265,12.7411186 L6.82364281,11.6616686 C6.64470297,11.4780403 6.3127112,11.4766151 6.13220996,11.6587699 C5.95170871,11.8408764 5.95679236,12.1721174 6.1427888,12.3486199 L7.59526187,13.7979352 C7.78414873,13.9855491 8.13413664,13.9706695 8.30636848,13.7677412 L10.7271569,10.8691056 C10.8527377,10.7309375 10.886774,10.5169944 10.8102578,10.3467965 C10.7337415,10.1765986 10.5509768,10.0597113 10.3640387,10.0614263 L10.3640459,10.0614505 Z M11.8555656,11.8800049 C11.5624217,11.8800049 11.3247963,12.1709846 11.3247963,12.5299886 C11.3247963,12.8889926 11.5624217,13.1800048 11.8555656,13.1800048 L17.6940272,13.1800048 C17.987171,13.1800048 18.2247964,12.8889926 18.2247964,12.5299886 C18.2247964,12.1709846 17.987171,11.8800049 17.6940272,11.8800049 L11.8555656,11.8800049 Z M10.3640459,15.3755875 C10.3437355,15.3755875 10.3235147,15.3794523 10.3035262,15.3830756 C10.1795189,15.3995012 10.0628998,15.4659523 9.98579772,15.56424 L7.90543265,18.0552508 L6.82364281,16.9758249 C6.64470297,16.7921725 6.3127112,16.7907715 6.13220996,16.9729262 C5.95170871,17.1550327 5.95679236,17.4862737 6.1427888,17.6627762 L7.59526187,19.1120916 C7.78414873,19.2997054 8.13413664,19.28485 8.30636848,19.0818975 L10.7271569,16.1832668 C10.8527377,16.0450745 10.886774,15.8311556 10.8102578,15.6609577 C10.7337415,15.4907597 10.5509768,15.3738725 10.3640387,15.3755875 L10.3640459,15.3755875 Z M11.8555656,17.0500031 C11.5624217,17.0500031 11.3247963,17.341008 11.3247963,17.700003 C11.3247963,18.058998 11.5624217,18.350003 11.8555656,18.350003 L17.6940272,18.350003 C17.987171,18.350003 18.2247964,18.058998 18.2247964,17.700003 C18.2247964,17.341008 17.987171,17.0500031 17.6940272,17.0500031 L11.8555656,17.0500031 Z" id="Shape" fill="#ED1461" fill-rule="nonzero"></path>
                            </g>
                        </g>
                    </g>
                </g>
            </g>
        </g>
    </g>
</svg>