<?xml version="1.0" encoding="UTF-8"?>
<svg width="24px" height="24px" viewBox="0 0 24 24" version="1.1" xmlns="http://www.w3.org/2000/svg" xmlns:xlink="http://www.w3.org/1999/xlink">
    <!-- Generator: Sketch 52.6 (67491) - http://www.bohemiancoding.com/sketch -->
    <title>Rectangle 20</title>
    <desc>Created with Sketch.</desc>
    <g id="Page-1" stroke="none" stroke-width="1" fill="none" fill-rule="evenodd">
        <g id="user-menu-cases" transform="translate(-588.000000, -504.000000)">
            <g id="Group-3" transform="translate(574.000000, 200.000000)">
                <g id="Group-4-Copy">
                    <g id="user-menu-missed-hover">
                        <g id="user-menu-hover" transform="translate(6.000000, 14.000000)">
                            <g id="icon-password" transform="translate(8.000000, 290.000000)">
                                <rect id="Rectangle-20" fill="#D8D8D8" opacity="0" x="0" y="0" width="24" height="24"></rect>
                                <path d="M17.2592593,10.9333333 L16.4915825,10.9333333 L16.4915825,8.66666667 C16.4915825,6.0936 14.4825724,4 12.013468,4 C9.54436364,4 7.53535354,6.0936 7.53535354,8.66666667 L7.53535354,10.9333333 L7.02356902,10.9333333 C6.45830303,10.9333333 6,11.4109333 6,12 L6,18.9333333 C6,19.5224 6.45830303,20 7.02356902,20 L17.2592593,20 C17.8245253,20 18.2828283,19.5224 18.2828283,18.9333333 L18.2828283,12 C18.2828283,11.4109333 17.8245253,10.9333333 17.2592593,10.9333333 Z M12.9090909,16.5333333 C12.9090909,16.9752 12.5654276,17.3333333 12.1414141,17.3333333 C11.7174007,17.3333333 11.3737374,16.9752 11.3737374,16.5333333 L11.3737374,14.4 C11.3737374,13.9581333 11.7174007,13.6 12.1414141,13.6 C12.5654276,13.6 12.9090909,13.9581333 12.9090909,14.4 L12.9090909,16.5333333 Z M9.17722222,10.88562 L9.17722222,8.66445669 C9.17722222,7.24926617 10.4399111,5.77333333 12.0811178,5.77333333 C13.7223245,5.77333333 14.9827778,7.29243948 14.9827778,8.66445669 L14.9827778,10.88562 L9.17722222,10.88562 Z" id="Shape" fill="#333333" fill-rule="nonzero"></path>
                            </g>
                        </g>
                    </g>
                </g>
            </g>
        </g>
    </g>
</svg>