<?xml version="1.0" encoding="UTF-8"?>
<svg width="24px" height="24px" viewBox="0 0 24 24" version="1.1" xmlns="http://www.w3.org/2000/svg" xmlns:xlink="http://www.w3.org/1999/xlink">
    <!-- Generator: Sketch 52.6 (67491) - http://www.bohemiancoding.com/sketch -->
    <title>Rectangle 24</title>
    <desc>Created with Sketch.</desc>
    <g id="Page-1" stroke="none" stroke-width="1" fill="none" fill-rule="evenodd">
        <g id="user-menu-cases" transform="translate(-588.000000, -447.000000)">
            <g id="Group-3" transform="translate(574.000000, 200.000000)">
                <g id="Group-4-Copy">
                    <g id="user-menu-missed-hover">
                        <g id="user-menu-hover" transform="translate(6.000000, 14.000000)">
                            <g id="icon-contact" transform="translate(8.000000, 233.000000)">
                                <polygon id="Rectangle-24" fill="#D8D8D8" opacity="0" points="0 0 24 0 24 24 0 24"></polygon>
                                <g id="contact" transform="translate(7.000000, 3.000000)" fill="#333333" fill-rule="nonzero">
                                    <path d="M8.27818005,0 L1.31998485,0 C0.968367913,0.00052859526 0.631444007,0.144890792 0.383733524,0.401156748 C0.136023041,0.657422704 -0.00206078308,1.00447415 2.32518506e-05,1.36555069 L2.32518506e-05,15.6445049 C0.00110371428,16.3934494 0.592631115,17.0000008 1.32194325,17 L8.27818005,17 C9.00749219,17.0000008 9.59901959,16.3934494 9.60010005,15.6445049 L9.60010005,1.36555069 C9.60218572,1.00412587 9.46383369,0.656768614 9.21569918,0.400444291 C8.96756467,0.144119968 8.63013652,-6.34617265e-06 8.27818005,0 Z M8.01949866,1.05668641 C8.1530381,1.05667171 8.28100532,1.11239351 8.37474774,1.2113754 C8.46849016,1.31035728 8.52017662,1.44433039 8.51823422,1.58329738 L8.51828706,2.17597066 L1.0824871,2.17597066 L1.08254035,1.58329738 C1.08060387,1.44530664 1.13154728,1.312194 1.224112,1.21337764 C1.31667672,1.11456129 1.44324147,1.05817721 1.57583516,1.05668641 L8.01949866,1.05668641 Z M8.51828706,3.00192145 L8.51828706,12.361286 L1.0824871,12.361286 L1.0824871,3 L8.51828706,3.00192145 Z M1.57948971,15.9920654 C1.44594589,15.9915825 1.31816652,15.9353164 1.22476439,15.8358666 C1.13136227,15.7364168 1.08014081,15.6020919 1.0825697,15.4629703 L1.0825697,13.3484796 L8.51828706,13.3484796 L8.51823404,15.4629703 C8.52017072,15.6014414 8.46897967,15.7349899 8.37602348,15.8339726 C8.2830673,15.9329554 8.15603656,15.9891833 8.02312761,15.9901758 L1.57948971,15.9920654 Z" id="Shape"></path>
                                    <circle id="Oval" cx="4.79501439" cy="14.6740124" r="1"></circle>
                                </g>
                            </g>
                        </g>
                    </g>
                </g>
            </g>
        </g>
    </g>
</svg>