<?xml version="1.0" encoding="UTF-8"?>
<svg width="24px" height="24px" viewBox="0 0 24 24" version="1.1" xmlns="http://www.w3.org/2000/svg" xmlns:xlink="http://www.w3.org/1999/xlink">
    <!-- Generator: Sketch 52.6 (67491) - http://www.bohemiancoding.com/sketch -->
    <title>Rectangle 21</title>
    <desc>Created with Sketch.</desc>
    <g id="Page-1" stroke="none" stroke-width="1" fill="none" fill-rule="evenodd">
        <g id="user-menu-cases" transform="translate(-588.000000, -561.000000)">
            <g id="Group-3" transform="translate(574.000000, 200.000000)">
                <g id="Group-4-Copy">
                    <g id="user-menu-missed-hover">
                        <g id="user-menu-hover" transform="translate(6.000000, 14.000000)">
                            <g id="icon-logout" transform="translate(8.000000, 347.000000)">
                                <rect id="Rectangle-21" fill="#FFFFFF" opacity="0" x="0" y="0" width="24" height="24"></rect>
                                <g id="Group-39" transform="translate(6.000000, 4.000000)" fill="#333333" fill-rule="nonzero">
                                    <g id="login-part1--white" transform="translate(0.000000, 5.156250)">
                                        <path d="M6.703125,2.578125 C6.703125,2.70703125 6.63609375,2.8359375 6.50203125,2.96484375 L4.1559375,5.02734375 C4.08890625,5.09179688 3.95484375,5.15625 3.75375,5.15625 C3.41859375,5.15625 3.2175,4.96289062 3.15046875,4.640625 C3.15046875,4.51171875 3.2175,4.3828125 3.3515625,4.25390625 L4.6921875,3.09375 L0.60328125,3.09375 C0.33515625,3.09375 0.06703125,2.8359375 0.06703125,2.578125 C0.06703125,2.3203125 0.33515625,2.0625 0.60328125,2.0625 L4.6921875,2.0625 L3.3515625,0.90234375 C3.28453125,0.7734375 3.2175,0.64453125 3.2175,0.515625 C3.2175,0.193359375 3.485625,5.72458747e-16 3.75375,5.72458747e-16 C3.8878125,5.72458747e-16 4.08890625,0.064453125 4.1559375,0.12890625 L6.50203125,2.19140625 C6.63609375,2.3203125 6.703125,2.44921875 6.703125,2.578125 Z" id="LoginPart2" transform="translate(3.385078, 2.578125) rotate(-180.000000) translate(-3.385078, -2.578125) "></path>
                                    </g>
                                    <g id="login-part2--white" transform="translate(3.609375, 0.000000)">
                                        <path d="M6.5625,15.984375 L0.65625,15.984375 C0.2625,15.984375 -2.42650344e-12,15.6537617 -2.42650344e-12,15.2541523 C-2.42650344e-12,14.854543 0.2625,14.5113272 0.65625,14.5113272 L5.6934071,14.5113272 L5.6934071,1.51108198 L0.65625,1.51108198 C0.2625,1.51108198 -2.42650344e-12,1.11558189 -2.42650344e-12,0.715972519 C-2.42650344e-12,0.316363144 0.2625,0 0.65625,0 L6.5625,0 C6.95625,0 7.21875,0.316363144 7.21875,0.715972519 L7.21875,15.2080341 C7.21875,15.6076435 6.95625,15.984375 6.5625,15.984375 Z" id="LoginPart1"></path>
                                    </g>
                                </g>
                            </g>
                        </g>
                    </g>
                </g>
            </g>
        </g>
    </g>
</svg>