<?xml version="1.0" encoding="UTF-8"?>
<svg width="24px" height="24px" viewBox="0 0 24 24" version="1.1" xmlns="http://www.w3.org/2000/svg" xmlns:xlink="http://www.w3.org/1999/xlink">
    <!-- Generator: Sketch 52.6 (67491) - http://www.bohemiancoding.com/sketch -->
    <title>Rectangle 20</title>
    <desc>Created with Sketch.</desc>
    <g id="Page-1" stroke="none" stroke-width="1" fill="none" fill-rule="evenodd">
        <g id="user-menu-cases" transform="translate(-588.000000, -390.000000)">
            <g id="Group-3" transform="translate(574.000000, 200.000000)">
                <g id="Group-4-Copy">
                    <g id="user-menu-missed-hover">
                        <g id="user-menu-hover" transform="translate(6.000000, 14.000000)">
                            <g id="icon-profile" transform="translate(8.000000, 176.000000)">
                                <rect id="Rectangle-20" fill="#CF2E2E" opacity="0" x="0" y="0" width="24" height="24"></rect>
                                <path d="M17.3526081,19.3266087 L17.251868,19.3266087 C16.8824873,19.3266087 16.5466868,19.0594783 16.5131067,18.6587826 C16.3116264,16.8222609 15.8415056,15.52 15.1027443,14.6518261 C14.8341038,14.3513043 14.8676839,13.8504348 15.1699044,13.5833043 C15.4721249,13.3161739 15.9422457,13.3495652 16.2108862,13.650087 C17.1511278,14.7186087 17.7555688,16.3213913 17.9906292,18.4584348 C18.0577894,18.925913 17.7555688,19.2932174 17.3526081,19.3266087 Z M12.013379,13.6834783 C9.36055444,13.6834783 7.21143076,11.5130435 7.21143076,8.84173913 C7.21143076,6.17043478 9.36055444,4 12.013379,4 C14.6662035,4 16.8153272,6.17043478 16.8153272,8.84173913 C16.8153272,11.5130435 14.6662035,13.6834783 12.013379,13.6834783 Z M12.0150146,5.44999695 C10.1741056,5.44999695 8.64001465,6.96874695 8.64001465,8.82499695 C8.64001465,10.6812469 10.1400146,12.1999969 12.0150146,12.1999969 C13.8900146,12.1999969 15.3900146,10.6812469 15.3900146,8.82499695 C15.3900146,6.93499695 13.8559237,5.44999695 12.0150146,5.44999695 Z M8.85685358,13.6166957 C9.1590741,13.8838261 9.19265416,14.3513043 8.9240137,14.6852174 C8.18525243,15.52 7.71513162,16.8222609 7.51365128,18.6921739 C7.48007122,19.0594783 7.14427064,19.36 6.77489001,19.36 L6.67414984,19.36 C6.27118915,19.3266087 5.96896863,18.925913 6.00254869,18.5252174 C6.27118915,16.3547826 6.84205013,14.7853913 7.8158718,13.6834783 C8.08451226,13.3829565 8.55463306,13.3495652 8.85685358,13.6166957 Z" id="Layer_1" fill="#333333" fill-rule="nonzero"></path>
                            </g>
                        </g>
                    </g>
                </g>
            </g>
        </g>
    </g>
</svg>