<?xml version="1.0" encoding="UTF-8"?>
<svg width="24px" height="24px" viewBox="0 0 24 24" version="1.1" xmlns="http://www.w3.org/2000/svg" xmlns:xlink="http://www.w3.org/1999/xlink">
    <!-- Generator: Sketch 57.1 (83088) - https://sketch.com -->
    <title>Social Media Icons/twitter 24x24</title>
    <desc>Created with Sketch.</desc>
    <g id="Social-Media-Icons/twitter-24x24" stroke="none" stroke-width="1" fill="none" fill-rule="evenodd">
        <path d="M2.77342161,8.14448814 C1.21254052,11.879875 2.0579081,16.187836 4.91469528,19.0563371 C7.77148246,21.9248383 12.0759683,22.7878472 15.8177419,21.2422954 C19.5595155,19.6967436 22.0002244,16.0476101 21.9999785,11.9992232 C22.0054694,9.35272161 20.9593946,6.81242753 19.0918585,4.93723385 C17.2243225,3.06204018 14.6883215,2.00557051 12.041804,2.00008574 C7.99342863,1.9833808 4.3343027,4.40910127 2.77342161,8.14448814 Z M16.0988203,10.445379 C16.1106351,12.4898694 15.0020274,14.3766988 13.2103248,15.3615439 C11.4186222,16.346389 9.23149784,16.2711247 7.51173639,15.1654413 C7.66871839,15.184068 7.82670767,15.1929046 7.9847877,15.1919 C8.86659818,15.1939267 9.72303365,14.8968612 10.4141868,14.3492321 C9.5760837,14.3324703 8.84138051,13.7846685 8.58612411,12.9862109 C8.70775892,13.0089009 8.83121097,13.0204409 8.95494378,13.0206873 C9.12827179,13.0210683 9.30086434,12.998146 9.46808418,12.9525363 C8.55132307,12.764772 7.89397146,11.9568379 7.8965917,11.021055 L7.8965917,10.992191 C8.16960702,11.143475 8.4746174,11.2278333 8.78656958,11.2383366 C7.92410052,10.6575692 7.65794023,9.50853393 8.17721535,8.60770569 C9.1715955,9.83574258 10.6402314,10.5843346 12.218196,10.6674713 C12.1857962,10.5194722 12.1696648,10.3683759 12.1700891,10.2168725 C12.1683838,9.69485662 12.3746158,9.19364815 12.7432139,8.82399902 C13.1118121,8.45434989 13.612433,8.24669002 14.1344547,8.24690042 C14.6763374,8.24598925 15.1938726,8.47190079 15.5616265,8.86988683 C16.0004893,8.78228247 16.4209233,8.61953479 16.8043884,8.38882052 C16.658941,8.84367982 16.3543407,9.2308331 15.9464818,9.47923749 C16.3341288,9.43194376 16.7124973,9.32681199 17.0689764,9.16734617 C16.8088923,9.56607191 16.4772474,9.91320971 16.0908025,10.1912156 C16.0988203,10.2770058 16.0988203,10.3619942 16.0988203,10.445379 Z" id="icon.twitter" fill="#757575"></path>
    </g>
</svg>
