<?xml version="1.0" encoding="UTF-8"?>
<svg width="24px" height="24px" viewBox="0 0 24 24" version="1.1" xmlns="http://www.w3.org/2000/svg" xmlns:xlink="http://www.w3.org/1999/xlink">
    <!-- Generator: Sketch 57.1 (83088) - https://sketch.com -->
    <title>Social Media Icons/Llinkedin 24x24</title>
    <desc>Created with Sketch.</desc>
    <g id="Social-Media-Icons/Llinkedin-24x24" stroke="none" stroke-width="1" fill="none" fill-rule="evenodd">
        <path d="M12.0257895,2.00003294 C7.97891192,1.98968279 4.32473935,4.41947031 2.76886636,8.15531897 C1.21299337,11.8911676 2.06219284,16.1964768 4.9200987,19.0617321 C7.77800456,21.9269875 12.0811209,22.787244 15.820957,21.2409748 C19.5607931,19.6947056 21.9999836,16.0467899 21.9999836,11.9999019 C22.0033799,9.35118223 20.9544433,6.809595 19.0839201,4.93426153 C17.2133969,3.05892806 14.674511,2.00346624 12.0257895,2.00003294 Z M9.58836785,16.1443175 L7.5678736,16.1443175 L7.5678736,9.62822822 L9.58836785,9.62822822 L9.58836785,16.1443175 Z M7.6252397,7.76653702 C7.65241834,7.21721771 8.11245657,6.78965307 8.66229374,6.80268748 C9.21213092,6.81572189 9.65139209,7.26460527 9.65251052,7.81459539 C9.65553771,8.09796537 9.53893482,8.36947552 9.33135815,8.56239959 C9.12378147,8.75532366 8.84447647,8.85177469 8.56208506,8.82804893 C8.01364662,8.7867441 7.59806106,8.31585634 7.6252397,7.76653702 Z M14.9442812,16.1443175 L14.9442812,12.5362947 C14.9442812,11.6960262 14.6476213,11.1251568 13.9179984,11.1251568 C13.4466336,11.1304192 13.0308504,11.4350044 12.8836977,11.8828416 C12.8283565,12.0460737 12.8038861,12.2181818 12.8115372,12.3903702 L12.8115372,16.1435157 L10.791043,16.1435157 L10.791043,11.7056476 C10.791043,10.8926398 10.7669895,10.2119261 10.742936,9.62662466 L12.4988417,9.62662466 L12.5870379,10.5326393 L12.627127,10.5326393 C13.0720414,9.85882803 13.8323872,9.46138861 14.6396035,9.48070018 C15.9625461,9.48070018 16.9647754,10.3730845 16.9647754,12.2909491 L16.9647754,16.1443175 L14.9442812,16.1443175 Z" id="icon.linkedin" fill="#757575"></path>
    </g>
</svg>
