<?xml version="1.0" encoding="UTF-8"?>
<svg width="24px" height="24px" viewBox="0 0 24 24" version="1.1" xmlns="http://www.w3.org/2000/svg" xmlns:xlink="http://www.w3.org/1999/xlink">
    <!-- Generator: Sketch 57.1 (83088) - https://sketch.com -->
    <title>Social Media Icons/fb 24x24</title>
    <desc>Created with Sketch.</desc>
    <defs>
        <path d="M2.77340255,8.14453373 C1.21254217,11.8799228 2.05792624,16.1878729 4.91471901,19.0563604 C7.77151178,21.9248478 12.075993,22.7878448 15.8177591,21.2422893 C19.5595253,19.6967339 22.0002276,16.0476048 21.9999796,11.9992239 C22.0110025,6.48830803 17.5526872,2.01174194 12.0417391,2.00008546 C7.99336902,1.98340702 4.33426294,4.40914466 2.77340255,8.14453373 Z M13.1439976,9.02616263 C12.8938154,9.08771887 12.7291552,9.32918997 12.7613012,9.58737977 L12.7613012,10.7032309 L14.6666408,10.7032309 L14.3735116,12.2938947 L12.7613012,12.2938947 L12.7613012,17.066709 L10.9618137,17.066709 L10.9618137,12.2938947 L9.33331835,12.2938947 L9.33331835,10.7032309 L10.9618137,10.7032309 L10.9618137,9.76677176 C10.923631,9.14956025 11.133884,8.54295006 11.5448152,8.08472828 C11.9557465,7.6265065 12.5324738,7.35556975 13.1439976,7.33345933 L14.6666408,7.33345933 L14.6666408,9.02616263 L13.1439976,9.02616263 Z" id="path-1"></path>
    </defs>
    <g id="Social-Media-Icons/fb-24x24" stroke="none" stroke-width="1" fill="none" fill-rule="evenodd">
        <mask id="mask-2" fill="white">
            <use xlink:href="#path-1"></use>
        </mask>
        <use id="icon.fb" fill="#757575" xlink:href="#path-1"></use>
    </g>
</svg>
