<?xml version="1.0" encoding="UTF-8"?>
<svg width="24px" height="24px" viewBox="0 0 24 24" version="1.1" xmlns="http://www.w3.org/2000/svg" xmlns:xlink="http://www.w3.org/1999/xlink">
    <!-- Generator: Sketch 57.1 (83088) - https://sketch.com -->
    <title>Question-mark - 24x24 - black</title>
    <desc>Created with Sketch.</desc>
    <g id="Question-mark---24x24---black" stroke="none" stroke-width="1" fill="none" fill-rule="evenodd">
        <path d="M12,2 C17.5228475,2 22,6.4771525 22,12 C22,17.5228475 17.5228475,22 12,22 C6.4771525,22 2,17.5228475 2,12 C2,6.4771525 6.4771525,2 12,2 Z M12.0134632,17 C11.1679065,17 10.5,17.6370766 10.5,18.4967434 C10.5,19.3910931 11.136371,20 12.0134632,20 C12.8761624,20 13.5,19.3684596 13.5,18.4967434 C13.5,17.6458695 12.8586157,17 12.0134632,17 Z M12.1313753,4 C9.52627181,4 6.5,5.67186403 6.5,8.4521357 C6.5,9.83250011 8.76247465,10.5581794 9.38338337,8.58314191 C9.87157809,7.15763872 10.4516105,6.24794545 12.1313753,6.24794545 C13.3701582,6.24794545 14.4739067,7.00276604 14.4739067,8.27408832 C14.4739067,10.4052956 10.3933306,11.0205491 10.3933306,14.5375686 C10.3933306,16.3824646 12.753712,16.4693697 13.0548398,14.8688457 C13.7713347,11.7023867 17.5,11.5541724 17.5,8.25212424 C17.5,5.44686195 14.765574,4 12.1313753,4 Z" id="Combined-Shape" fill="#009754"></path>
    </g>
</svg>
