<?xml version="1.0" encoding="UTF-8"?>
<svg width="24px" height="24px" viewBox="0 0 24 24" version="1.1" xmlns="http://www.w3.org/2000/svg" xmlns:xlink="http://www.w3.org/1999/xlink">
    <!-- Generator: Sketch 57.1 (83088) - https://sketch.com -->
    <title>Arrows/Chevron/black/24x24</title>
    <desc>Created with Sketch.</desc>
    <g id="Arrows/Chevron/black/24x24" stroke="none" stroke-width="1" fill="none" fill-rule="evenodd">
        <path d="M14.4155677,12.4588426 L7.24741617,19.923808 C6.84580663,20.3420471 6.79900776,20.9870076 7.1360328,21.4588426 C7.41249648,21.8458918 7.95037991,21.935539 8.33742906,21.6590753 C8.37221418,21.6342288 8.40510113,21.606827 8.43581723,21.5770969 L17.1141195,13.1773889 C17.5109616,12.7932863 17.5212891,12.1602056 17.1371865,11.7633634 C17.1296235,11.7555495 17.1219334,11.7478595 17.1141195,11.7402964 L8.43581723,3.34058836 C8.09404351,3.00978639 7.54881319,3.01868075 7.21801122,3.36045447 C7.18828119,3.39117057 7.16087931,3.42405752 7.1360328,3.45884264 C6.79900776,3.93067768 6.84580663,4.57563815 7.24741617,4.99387727 L14.4155677,12.4588426 L14.4155677,12.4588426 Z" id="Path-5" fill="#333333" transform="translate(12.165103, 12.458876) rotate(90.000000) translate(-12.165103, -12.458876) "></path>
    </g>
</svg>