<?xml version="1.0" encoding="UTF-8"?>
<svg width="20px" height="20px" viewBox="0 0 20 20" version="1.1" xmlns="http://www.w3.org/2000/svg" xmlns:xlink="http://www.w3.org/1999/xlink">
    <!-- Generator: Sketch 57.1 (83088) - https://sketch.com -->
    <title>Calendar</title>
    <desc>Created with Sketch.</desc>
    <g id="Symbols" stroke="none" stroke-width="1" fill="none" fill-rule="evenodd">
        <g id="Special-Icons/Calendar/24x24-new" transform="translate(-2.000000, -2.000000)" fill="#00B263">
            <path d="M3.5,9.99778275 L20.5,9.99778275 L20.5,6.50151917 C20.5,5.94923442 20.0522847,5.50151917 19.5,5.50151917 L19.5,5.50151917 L19.5,5.50151917 L18,5.50151917 L18,5.99778275 C18,7.10235225 17.1045695,7.99778275 16,7.99778275 C14.8954305,7.99778275 14,7.10235225 14,5.99778275 L14,5.50151917 L14,5.50151917 L10.0031399,5.50151917 L10.0031399,5.99228601 C10.0031399,7.09685551 9.1077094,7.99228601 8.0031399,7.99228601 L8,7.99228601 C6.8954305,7.99228601 6,7.09685551 6,5.99228601 L6,5.50151917 L6,5.50151917 L4.99904905,5.50151917 L4.5,5.50151917 C3.94771525,5.50151917 3.5,5.94923442 3.5,6.50151917 L3.5,6.50151917 L3.5,6.50151917 L3.5,9.99778275 Z M20.5,11.5 L3.5,11.5 L3.5,18.9942803 L3.5,19.5 C3.5,20.0522847 3.94771525,20.5 4.5,20.5 L4.99904905,20.5 L4.99904905,20.5 L19,20.5 L19.5,20.5 C20.0522847,20.5 20.5,20.0522847 20.5,19.5 L20.5,18.9942803 L20.5,18.9942803 L20.5,11.5 Z M3.99904905,3.99778275 L6,3.99778275 C6,2.8944378 6.8944378,2 7.99778275,2 L8.00535715,2 C9.10870209,2 10.0031399,2.8944378 10.0031399,3.99778275 L10.0031399,3.99778275 L10.0031399,3.99778275 L14,3.99778275 C14,2.8944378 14.8944378,2 15.9977827,2 L16.0022173,2 C17.1055622,2 18,2.8944378 18,3.99778275 L18,3.99778275 L18,3.99778275 L20,3.99778275 C20,3.99778275 20,3.99778275 20,3.99778275 C21.1045695,3.99778276 22,4.89321326 22,5.99778275 L22,6.50151917 L22,6.50151917 L22,19.9942803 C22,19.9954478 22,19.9966153 22,19.9977827 C22,21.1023522 21.1045695,21.9977827 20,21.9977827 L20,21.9977827 L20,21.9977827 L3.99904905,21.9977827 C2.89500475,21.9977827 2,21.102778 2,19.9987337 L2,19.9942803 L2,19.9942803 L2,11.0015486 L2,9.99778275 L2,6.50151917 L2,5.9968318 C2,4.89278749 2.89500475,3.99778275 3.99904905,3.99778275 C3.99904905,3.99778275 3.99904905,3.99778275 3.99904905,3.99778275 Z M15.5,4 L15.5,6 C15.5,6.27614237 15.7238576,6.5 16,6.5 C16.2761424,6.5 16.5,6.27614237 16.5,6 L16.5,4 C16.5,3.72385763 16.2761424,3.5 16,3.5 C15.7238576,3.5 15.5,3.72385763 15.5,4 Z M7.5,4 L7.5,6 C7.5,6.27614237 7.72385763,6.5 8,6.5 C8.27614237,6.5 8.5,6.27614237 8.5,6 L8.5,4 C8.5,3.72385763 8.27614237,3.5 8,3.5 C7.72385763,3.5 7.5,3.72385763 7.5,4 Z" id="Calendar"></path>
        </g>
    </g>
</svg>