<?xml version="1.0" encoding="UTF-8"?>
<svg width="20px" height="20px" viewBox="0 0 20 20" version="1.1" xmlns="http://www.w3.org/2000/svg" xmlns:xlink="http://www.w3.org/1999/xlink">
    <!-- Generator: Sketch 53.2 (72643) - https://sketchapp.com -->
    <title>onboarding_information_box_chat_white</title>
    <desc>Created with Sketch.</desc>
    <g id="Page-1" stroke="none" stroke-width="1" fill="none" fill-rule="evenodd">
        <g id="Artboard" transform="translate(-90.000000, -99.000000)" fill="#FFFFFF" fill-rule="nonzero">
            <g id="onboarding_information_box_chat_white" transform="translate(90.000000, 99.000000)">
                <rect id="Rectangle-2" opacity="0" x="0" y="0" width="20" height="20"></rect>
                <path d="M16.4437692,13.9904583 C15.915,13.5739167 15.6457692,13.173625 15.5154615,12.595125 C16.4739231,11.6017083 17,10.3488333 17,9.0520833 C17,5.99058333 14.1014615,3.5 10.5384615,3.5 C6.9754615,3.5 4.07692308,5.99058333 4.07692308,9.0520833 L4.07692308,9.0748333 C3.38176923,9.7963333 3,10.6976667 3,11.625 C3,12.756 3.55730769,13.8274167 4.53676923,14.5927917 C4.43876923,14.8316667 4.28638462,15.029375 4.05753846,15.2184167 C3.81146154,15.4204583 3.73607692,15.7741667 3.87392308,16.0785833 C3.98969231,16.33425 4.24223077,16.5 4.51738462,16.5 C5.35469231,16.5 6.3578462,15.867875 6.766,15.5840417 C7.1235385,15.6528333 7.4864615,15.6875 7.8461538,15.6875 C9.0926923,15.6875 10.2713846,15.2931667 11.176,14.5749167 C11.7123078,14.5311447 12.2422511,14.4285212 12.7563846,14.268875 C13.3659231,14.6642917 14.6894615,15.4166667 15.9327692,15.4166667 C16.2359231,15.4166667 16.517,15.237375 16.6494615,14.9595 C16.811,14.6193333 16.7243077,14.212 16.4437692,13.9904583 Z M12.6923077,11.625 C12.6923077,9.3846667 10.5185385,7.5625 7.8461538,7.5625 C6.9296923,7.5625 6.0315385,7.7829583 5.261,8.191375 C5.74884615,6.1281667 7.949,4.58333333 10.5384615,4.58333333 C13.5075385,4.58333333 15.9230769,6.5880417 15.9230769,9.0520833 C15.9230769,10.1435417 15.4416923,11.1949167 14.5672308,12.0139167 L14.4633077,12.110875 L14.3599231,12.2072917 L14.3803846,12.3486667 L14.4013846,12.4895 C14.501,13.1682083 14.7309231,13.7217917 15.124,14.2065833 C14.4250769,14.0077917 13.6895385,13.6075 13.1435385,13.2261667 L13.0299231,13.1470833 L12.9168462,13.068 L12.7865385,13.1140417 L12.6562308,13.160625 C12.5286127,13.2064296 12.3992858,13.2472656 12.2685385,13.2830417 C12.5474615,12.7630417 12.6923077,12.20025 12.6923077,11.625 Z M5.60615385,14.02025 L5.45323077,13.9205833 C4.57876923,13.3485833 4.07692308,12.51225 4.07692308,11.625 C4.07692308,9.982125 5.76769231,8.6458333 7.8461538,8.6458333 C9.9246154,8.6458333 11.6153846,9.982125 11.6153846,11.625 C11.6153846,13.2673333 9.9246154,14.6041667 7.8461538,14.6041667 C7.487,14.6041667 7.1246154,14.561375 6.7681538,14.4774167 L6.6459231,14.4481667 L6.5236923,14.4189167 L6.423,14.49475 L6.3223077,14.5705833 C6.0605246,14.768062 5.78319894,14.9437809 5.49307692,15.096 C5.58159921,14.8990169 5.64701425,14.6923329 5.688,14.480125 L5.72353846,14.3008333 L5.75961538,14.1204583 L5.60615385,14.02025 Z" id="Shape"></path>
            </g>
        </g>
    </g>
</svg>