<?xml version="1.0" encoding="UTF-8"?>
<svg width="20px" height="20px" viewBox="0 0 20 20" version="1.1" xmlns="http://www.w3.org/2000/svg" xmlns:xlink="http://www.w3.org/1999/xlink">
    <!-- Generator: Sketch 53.2 (72643) - https://sketchapp.com -->
    <title>onboarding_information_box_phone_white</title>
    <desc>Created with Sketch.</desc>
    <g id="Page-1" stroke="none" stroke-width="1" fill="none" fill-rule="evenodd">
        <g id="Artboard" transform="translate(-60.000000, -99.000000)" fill="#00B263" fill-rule="nonzero">
            <g id="onboarding_information_box_phone_white" transform="translate(60.000000, 99.000000)">
                <path d="M13.6163603,17 C12.6036003,17 11.0472619,16.4941566 9.45312494,15.6472041 C8.93654538,15.3724013 7.68454491,14.5300166 6.63728633,13.5936243 C5.51698065,12.5925465 4.52147003,11.4064005 4.17243384,10.8844962 C3.12517527,9.31907815 2.5,7.81996637 2.5,6.87473322 C2.5,5.19895198 5.05634887,3.28535215 5.34793734,3.07272995 C5.508281,2.95588351 5.73357208,2.98255338 5.86106704,3.13314235 L8.59680882,6.36594287 C8.72730366,6.52021553 8.7085544,6.7483092 8.55496047,6.88018507 C7.74364257,7.57625388 7.01392144,8.35321637 6.94072433,8.59663417 C6.99847205,8.86244876 7.83168909,9.86735758 9.00539266,10.955665 C9.01859213,10.9642111 9.03089165,10.9733467 9.04274118,10.9833663 C10.2548432,12.0249646 11.397648,12.7731944 11.6971862,12.8160724 C11.9376267,12.7142554 12.662098,11.9123912 13.2725739,11.0698592 C13.3907692,10.9061563 13.6201101,10.8654884 13.7893034,10.9779144 L17.3345632,13.3331142 C17.4998566,13.442888 17.5492047,13.6606674 17.4464587,13.828496 C17.2597161,14.1345364 15.5740828,16.8227412 13.87645,16.9877702 C13.7944032,16.9958743 13.7068067,17 13.6163603,17 Z M5.57140751,4.25641026 C4.79673514,4.88363173 3.4684833,5.74332844 3.4684833,6.68296232 C3.4684833,7.62259619 4.09565068,9.09068264 4.9837001,10.4366218 C5.29269147,10.9052404 6.27174027,11.9864542 7.28321639,12.9031083 C8.2618542,13.7901565 9.3832011,14.6331756 9.79042202,14.8253294 C12.1816031,15.9536469 13.1416193,16.0893846 13.463764,16.1544678 C13.7859087,16.2195509 14.0246169,16.0691398 14.0738822,16.0468141 C14.8988459,15.6729628 15.7163647,14.6614259 16.4374362,13.7189952 L13.7679556,11.978636 C13.3155269,12.6769847 12.1110764,13.8027572 11.7524208,13.8027572 C11.6050035,13.8027572 11.5198327,13.8046852 11.4989862,13.8027572 C10.7899564,13.7371825 8.83401325,11.978636 8.38095207,11.6232787 C7.00820345,10.3692587 6.00687828,9.30894884 6.00687828,8.6163125 C6.00687828,8.15079546 6.8443806,7.22668136 7.58394997,6.56012637 L5.57140751,4.25641026 Z" id="Shape"></path>
                <rect id="Rectangle-2" opacity="0" x="0" y="0" width="20" height="20"></rect>
            </g>
        </g>
    </g>
</svg>
