<?xml version="1.0" encoding="UTF-8"?>
<svg width="20px" height="20px" viewBox="0 0 20 20" version="1.1" xmlns="http://www.w3.org/2000/svg" xmlns:xlink="http://www.w3.org/1999/xlink">
    <!-- Generator: Sketch 53.2 (72643) - https://sketchapp.com -->
    <title>onboarding_information_box_email_white</title>
    <desc>Created with Sketch.</desc>
    <g id="Page-1" stroke="none" stroke-width="1" fill="none" fill-rule="evenodd">
        <g id="Artboard" transform="translate(-120.000000, -99.000000)" fill="#FFFFFF" fill-rule="nonzero">
            <g id="onboarding_information_box_email_white" transform="translate(120.000000, 99.000000)">
                <rect id="Rectangle-2" opacity="0" x="0" y="0" width="20" height="20"></rect>
                <path d="M3.5,4 C2.67765,4 2,4.70991575 2,5.5714271 L2,13.4285729 C2,14.2900816 2.67765,15 3.5,15 L16.5,15 C17.32235,15 18,14.2900816 18,13.4285729 L18,5.5714271 C18,4.70991575 17.32235,4 16.5,4 L3.5,4 Z M3.5,5.04761805 L16.5,5.04761805 C16.78565,5.04761805 17,5.27217498 17,5.5714271 L17,13.4285729 C17,13.727825 16.78565,13.952382 16.5,13.952382 L3.5,13.952382 C3.21435,13.952382 3,13.727825 3,13.4285729 L3,5.5714271 C3,5.27217498 3.21435,5.04761805 3.5,5.04761805 Z M4.97655,6.0870516 C4.7742147,6.0950334 4.59644422,6.2300549 4.52629009,6.4290362 C4.45613596,6.6280176 4.50744641,6.8516803 4.65625,6.9955329 L7.1172,9.4181601 L4.64845,12.0044671 C4.51702644,12.1350607 4.46329319,12.3299015 4.50798598,12.5138002 C4.55267877,12.6976989 4.68880874,12.8418983 4.86384319,12.8907517 C5.03887764,12.939605 5.22544549,12.8854729 5.35155,12.749245 L7.84375,10.1383975 L8.85155,11.1369084 C9.490375,11.7677316 10.4938,11.7662126 11.1328,11.1369084 L12.14845,10.1301999 L14.64845,12.749245 C14.7745545,12.8854729 14.9611224,12.939605 15.1361568,12.8907517 C15.3111913,12.8418983 15.4473212,12.6976989 15.492014,12.5138002 C15.5367068,12.3299015 15.4829736,12.1350607 15.35155,12.0044671 L12.8828,9.4181601 L15.34375,6.9955329 C15.4735379,6.8668748 15.5279485,6.6754518 15.4864858,6.4933709 C15.4450232,6.31129 15.3139864,6.1662137 15.1427358,6.1127909 C14.9714852,6.059368 14.7860379,6.1057148 14.65625,6.2343729 L10.453125,10.3757354 C10.2527,10.5731066 9.738525,10.5726352 9.53905,10.3757354 L5.34375,6.2343729 C5.24568834,6.1347957 5.11301754,6.0815679 4.97655,6.0870516 Z" id="Shape"></path>
            </g>
        </g>
    </g>
</svg>