<?xml version="1.0" encoding="UTF-8"?>
<svg width="20px" height="20px" viewBox="0 0 20 20" version="1.1" xmlns="http://www.w3.org/2000/svg" xmlns:xlink="http://www.w3.org/1999/xlink">
    <!-- Generator: Sketch 53.2 (72643) - https://sketchapp.com -->
    <title>onboarding_information_box_feedback_white</title>
    <desc>Created with Sketch.</desc>
    <g id="Page-1" stroke="none" stroke-width="1" fill="none" fill-rule="evenodd">
        <g id="Artboard" transform="translate(-150.000000, -99.000000)" fill="#00B263" fill-rule="nonzero">
            <g id="onboarding_information_box_feedback_white" transform="translate(150.000000, 99.000000)">
                <rect id="Rectangle-2" opacity="0" x="0" y="0" width="20" height="20"></rect>
                <path d="M4.06275,10.1470636 C2.64575,8.74506358 2.64575,6.45906358 4.06275,5.07406358 C4.7461663,4.39424547 5.67179925,4.01399129 6.63575,4.01706358 C7.59775,4.01706358 8.50775,4.39806358 9.20775,5.07406358 L10,5.73112897 L10.81775,5.03906358 C11.4911214,4.36841448 12.4043989,3.99439189 13.35475,4.00006358 C14.31775,4.00006358 15.24475,4.38106358 15.92775,5.05606358 C16.5675255,5.69282387 16.9478112,6.5446352 16.99475,7.44606358 C17.0446271,8.44470436 16.6620463,9.41645957 15.94475,10.1130636 L9.99475,16.0000636 L4.06275,10.1470636 Z M9.99975,14.3515444 L14.9407795,9.49710744 C15.7250651,8.75340507 15.9048083,7.97816784 15.9048083,7.49999009 C15.9048083,7.02181234 15.721676,6.32806766 15.08118,5.80506358 C14.4406839,5.28205949 13.6020073,5.13427017 12.963072,5.32855897 C12.3241367,5.52284778 11.2553185,6.27031379 11.1916076,6.32806766 C11.1491336,6.36657024 10.7518478,6.75721105 9.99975,7.49999009 L8.64696549,6.32806766 C8.04696549,5.82206766 7.30867037,5.41629105 7.00507269,5.32855897 C6.70147502,5.2408269 5.86390497,5.20806358 5.07990497,5.80506358 C4.57762085,6.19140015 4.28822581,6.86632227 4.28822581,7.49999009 C4.28822581,8.18540125 4.50296342,8.72134617 5.2370265,9.5 C5.72640189,10.0191026 7.31397639,11.636284 9.99975,14.3515444 Z" id="Shape"></path>
            </g>
        </g>
    </g>
</svg>
