<?xml version="1.0" encoding="UTF-8"?>
<svg width="24px" height="24px" viewBox="0 0 24 24" version="1.1" xmlns="http://www.w3.org/2000/svg" xmlns:xlink="http://www.w3.org/1999/xlink">
    <!-- Generator: Sketch 57.1 (83088) - https://sketch.com -->
    <title>Checks, Errors &amp; Actions/Error Circle/24x24</title>
    <desc>Created with Sketch.</desc>
    <g id="Checks,-Errors-&amp;-Actions/Error-Circle/24x24" stroke="none" stroke-width="1" fill="none" fill-rule="evenodd">
        <path d="M12,2 C17.5228475,2 22,6.4771525 22,12 C22,17.5228475 17.5228475,22 12,22 C6.4771525,22 2,17.5228475 2,12 C2,6.4771525 6.4771525,2 12,2 Z M12,3 C7.02943725,3 3,7.02943725 3,12 C3,16.9705627 7.02943725,21 12,21 C16.9705627,21 21,16.9705627 21,12 C21,7.02943725 16.9705627,3 12,3 Z M8.99392809,8.41904323 L11.956,11.381 L14.9212719,8.42076933 C15.0782501,8.26398295 15.3326066,8.26413843 15.4893929,8.42111661 C15.4898909,8.42161519 15.4903876,8.42211508 15.4908829,8.42261627 C15.6479292,8.58151835 15.6471673,8.83741996 15.4891776,8.99538406 L12.529,11.954 L15.4906656,14.9147263 C15.6295653,15.0536034 15.6469438,15.2679979 15.5427903,15.4257716 L15.4906889,15.4895605 C15.3319426,15.6483068 15.0745673,15.6483172 14.9158081,15.4895838 L11.954,12.528 L8.99392521,15.4895822 C8.83516603,15.6483156 8.57779065,15.6483051 8.41904435,15.4895588 C8.26039883,15.3309133 8.26039883,15.0736981 8.41904435,14.9150526 L8.41913216,14.9149648 L11.381,11.955 L8.41907056,8.99390076 C8.28017085,8.8550236 8.2627924,8.64062914 8.36694592,8.48285539 L8.41904723,8.41906656 C8.57779353,8.26032026 8.83516891,8.26030981 8.99392809,8.41904323 Z" id="Combined-Shape" fill="#333333"></path>
    </g>
</svg>